<?xml version="1.0" encoding="utf-8"?>
<!-- Generator: Adobe Illustrator 22.0.1, SVG Export Plug-In . SVG Version: 6.00 Build 0)  -->
<svg version="1.1" id="图层_1" xmlns="http://www.w3.org/2000/svg" xmlns:xlink="http://www.w3.org/1999/xlink" x="0px" y="0px"
	 viewBox="0 0 595.3 841.9" style="enable-background:new 0 0 595.3 841.9;" xml:space="preserve">
<style type="text/css">
	.st0{fill:#E60012;}
	.st1{enable-background:new    ;}
	.st2{fill:none;stroke:#E60012;stroke-miterlimit:10;}
</style>
<path d="M216.5,400.8c-0.3,1.1-0.9,1.7-1.6,2c-0.5,0.2-1.2,0.2-2.2-0.2c-0.3-0.1-0.6-0.3-0.8-0.3c-0.2-0.2-0.4-0.3-0.7-0.3
	c-0.1-0.1-0.3-0.1-0.4-0.1c-0.1,0-0.2,0-0.3,0c-0.2,0.1-0.3,0.1-0.4,0.1c-0.1,0-0.3,0.1-0.6,0.2c-0.4,0.2-0.6,0.3-0.7,0.3l-0.3,0.1
	c-0.4,0.1-0.6,0.1-0.8,0.1h-0.1c-1.3,0-2-0.6-2-1.7c0-0.2,0.1-0.4,0.2-0.6c0.4,0,0.7,0,1,0c0.1,0,0.2,0,0.5-0.1h0.4
	c0.7,0,1-0.1,1-0.3c-0.1-0.4-0.3-0.6-0.4-0.7c-0.3-0.6-0.5-1.1-0.9-1.4h-0.1c-0.1,0-0.3,0.1-0.5,0.3l-0.1,0.1
	c-0.2,0.5-0.5,0.9-1,1.4c-0.8,0.9-1.8,1.4-3,1.5c-0.8-0.1-1.3-0.3-1.5-0.8c0-0.4,0-0.6,0.1-0.7c0.1-0.2,0.3-0.4,0.5-0.5
	c1.3-0.7,2.2-1.4,2.8-2c0.1-0.1,0.2-0.2,0.3-0.3c0.4-0.5,0.6-0.9,0.6-1.2v-0.2l-0.1-0.1c-0.4,0.1-0.8,0.1-1.1,0
	c-1,0-1.5-0.2-1.5-0.7c0.1-0.8,0.6-1.3,1.6-1.4c0.1,0,0.3,0,0.6,0.1s0.4,0.1,0.5,0.1c0.2,0,0.5-0.1,0.9-0.2c0.1-0.1,0.1-0.1,0.2-0.1
	c0.2-0.1,0.3-0.2,0.2-0.5c0-0.2,0-0.5-0.1-0.7c-1.2,0-2.2,0.1-2.9,0.3l-1.1,0.7c0,0.1,0,0.2-0.1,0.2l-0.1,0.1
	c-0.4,0.4-0.7,1-0.8,1.8c-0.1,1.3-0.1,2.4,0,3.3c0,0.5-0.1,0.7-0.2,0.8c-0.1,0.1-0.3,0.2-0.6,0.2c-0.1,0-0.1,0-0.2,0h-0.2
	c-0.5,0.1-0.8,0-0.9-0.3c0-0.1,0-0.4-0.1-0.9v-0.5c0-0.2,0-0.5,0-0.7s0-0.4,0-0.6c0-0.1,0-0.5,0.1-1.1c0-0.6,0-0.9,0-1
	c0-0.8,0.2-1.5,0.5-2.3c0.3-0.5,0.7-0.9,1.2-1.4c0.1-0.1,0.2-0.1,0.3-0.1s0.3,0.1,0.5,0.3h0.2c0.6,0,1.2-0.1,1.8-0.3v-0.1v-0.1
	c-0.1-0.4-0.2-0.6-0.2-0.7v-0.2c0.1-0.8-0.1-1.1-0.5-1.1c-0.1,0-0.1,0-0.2,0c-0.1,0.1-0.1,0.1-0.2,0.1c-0.3,0-0.6-0.1-1-0.5
	c0.1,0,0,0-0.1-0.1s-0.2-0.3-0.2-0.6c0-0.2,0.2-0.5,0.6-0.7h0.1c0.6-0.2,1.1-0.3,1.5-0.3c0.1,0,0.3,0,0.6,0c0.3,0.1,0.4,0.1,0.6,0.1
	c0.1,0,0.2,0,0.5,0c0.3-0.1,0.4-0.1,0.6-0.1c0.6,0,1.1,0,1.7,0c0.2,0,0.5,0,0.9,0c0.8,0.2,1.3,0.2,1.7,0c1,0,2-0.1,3-0.2
	c0.3,0.1,1,0.2,2,0.2c0.1,0,0.2,0,0.3,0s0.2,0.1,0.4,0.2c0.3,0.2,0.5,0.2,0.7,0.1v0.2c0,0.8-0.2,1.1-0.6,1.1c-0.4,0-0.8,0-1.1,0
	c-0.1,0-0.1,0-0.2,0.1c0,0.5,0,0.8-0.1,1.1c0,0.1,0,0.1-0.1,0.1c-0.1,0.1-0.1,0.2-0.1,0.5c0,0.2,0.4,0.3,1.2,0.3h0.2l1.3,0.3
	l0.6,0.8c0.1,0.2,0.1,0.3,0.1,0.3c0.6,1.7,0.8,3.8,0.8,6.6c-0.1,0.4-0.2,0.6-0.2,0.8c-0.2,0.5-0.6,0.8-1.1,0.8
	c-0.5-0.2-0.8-0.4-1-0.8c0-0.1,0-0.2,0.1-0.3c0.1-0.1,0.1-0.1,0.1-0.2c0.3-1.7,0.2-3.4-0.2-5.1c-0.1-0.5-0.4-0.9-0.8-1.1
	c-1-0.3-2-0.5-3-0.5c-0.1,0-0.5,0-1,0c-1.3,0.1-2.3,0.1-3,0.1h-0.2l-0.1,0.1c0.1,0,0.1,0.1,0.1,0.2c0,0.2,0,0.5,0,0.8
	c0.1,0.2,0.2,0.3,0.3,0.3c1.3,0,3.2,0,5.8-0.1c0.1,0,0.2,0,0.4,0l0.3,0.1c0.4,0.5,0.4,1.1,0,1.6l-0.6,0.1h-0.2
	c-2.2-0.1-3.7-0.1-4.6,0c-1.5,0-2.2,0.3-2.2,0.9c0,0.1,0.1,0.1,0.2,0.1h0.1c0.3-0.2,0.8-0.2,1.4-0.1c0.3,0,0.4,0,0.5,0
	c0.8-0.1,1.5-0.1,2.3-0.1c0.6,0,1.1,0,1.5,0.1l0.3,0.1c0.3,0.1,0.5,0.2,0.5,0.3c0,0.7-0.1,1.4-0.4,2.3c-0.1,0.1-0.2,0.3-0.5,0.6
	c-0.3,0.4-0.4,0.6-0.6,0.8l-0.1,0.1v0.1c0.1,0.1,0.8,0.2,2.1,0.2c0.1,0,0.3,0,0.6-0.1c0.2-0.1,0.3-0.1,0.4-0.1
	c0.3-0.1,0.4,0,0.4,0.2C216.6,400.7,216.6,400.8,216.5,400.8z M205.8,390.4c0.3-0.1,0.8-0.1,1.4,0c0.3,0,0.6,0,0.8,0
	c0.3,0,0.5,0,0.5-0.1c0-0.2,0-0.4-0.1-0.8c-0.1-0.3-0.1-0.5-0.1-0.7c-0.1-0.2-0.3-0.3-0.6-0.3c-0.1,0-0.2,0-0.3,0c-0.3,0-0.7,0-1,0
	c-0.3,0.5-0.5,1-0.6,1.5C205.8,390,205.8,390.1,205.8,390.4z M209.7,397.9c0,0.2,0.2,0.4,0.5,0.8c0.1,0.2,0.2,0.3,0.2,0.3l0.1,0.1
	c0.1,0,0.2,0.1,0.3,0.2c0.1,0,0.2,0,0.3,0c1.1-0.2,1.7-0.7,1.8-1.5c0-0.2-0.1-0.3-0.3-0.3c-0.1,0-0.2,0-0.5-0.1h-0.3
	c-0.4,0-0.9,0.1-1.4,0.2h-0.1C209.9,397.6,209.7,397.7,209.7,397.9z M210.8,390.4c0.2,0,0.5,0,1,0c0.5-0.1,0.9-0.1,1.1-0.1h0.1
	c-0.1-0.2-0.2-0.5-0.3-0.8c0-0.1,0-0.1,0.1-0.2c0.1-0.2,0.1-0.4,0.1-0.6c0-0.5-0.3-0.6-0.9-0.6c-0.1,0-0.2,0-0.3,0
	c-0.3,0-0.5,0-0.9,0c-0.1,0-0.2,0-0.2,0.1c-0.2,0.2-0.4,0.8-0.5,1.8v0.2C210.4,390.3,210.6,390.4,210.8,390.4z"/>
<path d="M234.4,401.5c-0.3,0-0.7,0-1.2,0.1c-0.5,0-0.9,0-1.1,0c-0.2,0-0.3,0-0.5,0c-0.1,0-0.3,0-0.5-0.1c-0.4-0.1-0.8-0.1-1-0.2
	c-1.9-0.8-3.2-2-3.8-3.7c0-0.1,0-0.3-0.1-0.7c-0.1-0.8-0.2-1.3-0.3-1.4c0-0.1-0.1-0.1-0.3-0.1c-0.4,0.1-0.6,0.1-0.7,0.1
	c-0.1,0-0.2,0-0.4,0c-0.5,0-0.8,0-1-0.1c-0.1,0-0.3-0.1-0.6-0.2c-0.3,0-0.5,0-0.9,0l-0.1-0.1c-0.3-0.1-0.4-0.2-0.5-0.3
	c-0.1,0-0.1-0.2-0.2-0.6c-0.1-0.2-0.1-0.4-0.1-0.5c-0.1-0.3-0.1-0.8-0.1-1.5c-0.1-0.6-0.1-1.1-0.1-1.4c0-0.1,0-0.3,0-0.7l-0.1-0.6
	c0-0.5,0.2-1,0.6-1.6c0.1-0.2,0.2-0.4,0.3-0.5s0.1-0.2,0.2-0.3c0.4-0.5,0.7-0.8,1-0.8c0.1,0,0.2,0.1,0.3,0.3l0.1,0.1h0.1
	c0.1-0.1,0.2-0.1,0.3-0.2c0.5-0.4,0.9-0.6,1.2-0.6h0.1c0.8,0,2.2,0,4.1,0c0.2,0,0.4,0,0.8-0.1c0.3-0.1,0.4-0.1,0.6-0.1h0.1
	c0.4,0.2,0.9,0.3,1.3,0.3h3c0.1,0,0.3,0,0.4,0c0.5,0.1,1,0.1,1.4,0.1c0.1,0,0.1,0,0.2,0.1c0.6,0.2,1,1.1,1,2.5
	c0.2,1.1,0.3,2.1,0.2,3.3c-0.1,1-0.4,1.7-0.9,2.1c-0.8,0.6-1.5,0.9-2.1,0.9c-0.2,0-0.4,0-0.7,0c-0.1,0-0.4,0-1,0
	c-0.5,0.1-0.8,0.1-1,0.1c-0.1,0.1-0.1,0.4-0.2,1c-0.1,0.3-0.1,0.5-0.1,0.6c0,0.2-0.1,0.7-0.4,1.4c-0.1,0.5-0.2,0.7-0.2,0.8
	c0.2,0.2,0.4,0.2,0.7,0.1h0.1c0.8,0.1,1.8,0.1,3.1,0c1-0.1,1.9-0.1,2.6-0.1c0.1,0,0.3,0,0.7,0c0.4-0.1,0.7-0.1,0.9-0.1
	c0.3,0,0.5,0,0.8,0c0.9,0,1.3,0.2,1.1,0.7c-0.3,0.2-0.6,0.5-1.1,0.9c-0.4,0.5-0.8,0.8-1,0.9c-0.4,0.2-1,0.3-1.6,0.3h-0.1
	C236.7,401.6,235.5,401.5,234.4,401.5z M221.3,397.8c0.1-0.3,0.2-0.7,0.5-1.2l0.1-0.1c0.1-0.2,0.2-0.3,0.4-0.5c0.1,0,0.1,0,0.2,0
	c0.6-0.1,0.8,0.3,0.8,1.2l0.1,0.1c0.1,0,0.3,0,0.7,0c0.1,0,0.2,0,0.3,0s0.3,0,0.4,0c0.5,0,0.8,0.1,0.8,0.3c0,0.1,0,0.2-0.1,0.2
	l-0.1,0.1c-0.4,0.4-1.3,0.6-2.6,0.8C221.7,398.8,221.3,398.5,221.3,397.8z M223.5,392.8c0.1,0.2,0.2,0.3,0.4,0.3
	c1.5,0.1,2.8,0.1,4,0c0.6,0,0.9-0.2,0.9-0.6s-0.2-0.6-0.7-0.7c-0.3,0-0.7,0-1.2,0c-1-0.1-1.8-0.1-2.4,0c-0.4,0-0.7,0.2-1,0.5
	C223.5,392.4,223.5,392.6,223.5,392.8z M223.8,389.5c0.1,0.1,0.2,0.2,0.3,0.3c2.1,0,3.6-0.1,4.6-0.3c0.1-0.1,0.2-0.2,0.3-0.5
	c0-0.5-0.3-0.7-0.8-0.7c-0.3,0-0.7,0-1.2,0c-0.1,0-0.2,0-0.3,0c-0.4,0-1,0.1-1.7,0.2c0.5-0.2,0.4-0.2-0.2,0
	C224.4,388.9,224.1,389.2,223.8,389.5z M229.4,398.9c0.7-0.3,1.2-1.2,1.5-2.7c0-0.4,0-0.6-0.1-0.7c-0.5-0.1-1.4-0.1-2.7-0.1H228
	c-0.4-0.1-0.7,0-0.7,0.3c0,0.1,0,0.3,0.1,0.6v0.3C228,398,228.7,398.8,229.4,398.9z M231.6,393.2c0.3,0,0.6,0,1,0.1
	c0.3,0,0.6,0,0.8,0c0.6,0,1.1-0.1,1.7-0.3c0.1,0,0.3,0,0.4-0.1c0.2-0.2,0.3-0.5,0.3-0.9v-0.1c-0.6,0-1.1,0-1.7,0
	c-0.2,0-0.6,0-1.1-0.1h-0.4H232c-0.3,0.1-0.5,0.1-0.6,0.1s-0.1,0-0.2,0.1c-0.1,0-0.2,0-0.2,0.1s0,0.2,0,0.2c-0.1,0.2-0.1,0.4,0,0.5
	C231.2,392.9,231.4,393.1,231.6,393.2z M235.4,389.8c0.3,0,0.4-0.1,0.4-0.3v-0.1c0-0.5-0.3-0.8-0.8-0.8c-0.8-0.2-1.8-0.2-3.2-0.2
	h-0.2c-0.3,0-0.5,0.3-0.6,0.8c0,0.3,0.3,0.5,0.9,0.5c0.2,0,0.4,0,0.8,0.1C233.9,389.7,234.8,389.8,235.4,389.8z M234,397.5
	c-0.4,0-0.7,0.1-1,0.3l-0.1-0.1c0.3-0.3,0.7-0.5,1.3-0.6c0.4-0.1,0.8-0.2,1-0.3c0.1,0,0.1-0.1,0.1-0.3c0.1-0.5,0.4-0.7,0.9-0.7
	c0.7,0.1,1.1,0.5,1.1,1.4c0,0.2-0.2,0.5-0.5,0.8c-0.1,0.1-0.1,0.2-0.2,0.2c-0.1,0.1-0.4,0.1-0.9,0.1c-0.6,0-1-0.1-1.1-0.3
	c-0.1-0.1-0.1-0.2-0.2-0.2C234.3,397.5,234.1,397.5,234,397.5z"/>
<path d="M255.2,400.7c-0.1-0.1-0.2-0.2-0.3-0.2l-0.1-0.1c-0.3-0.4-0.5-0.9-0.6-1.7c0-0.2,0.1-0.4,0.4-0.6c0.1-0.1,0.1-0.1,0.2-0.1
	c0.3-0.1,0.5-0.3,0.6-0.3h0.2c0.1,0,0.1,0,0.1,0.1l0.1,0.1c0.1,0.1,0.3,0.1,0.5,0.1c2-0.1,3.1-0.9,3.1-2.3c0.1-0.6,0-1-0.1-1.1
	c-0.1-0.2-0.4-0.2-0.8,0h-0.4c-0.4,0.1-0.7,0.1-0.8,0.1c-0.2-0.1-0.4-0.2-0.8-0.2c-0.9,0-1.4-0.4-1.5-1.1c0-0.4,0-0.8,0-1.2
	c0-0.3,0-0.5-0.1-0.6c-0.1,0-0.2,0-0.3,0.1c-0.3,0.1-0.4,0.1-0.6,0.1l0,0l-0.9-0.3c-1-1.1-2.1-1.8-3.3-2.4c-0.1-0.2-0.2-0.2-0.5-0.1
	h-0.2c-0.3,0-0.6,0.1-1,0.2c-0.1,0.1-0.2,0.1-0.3,0.1l-0.4,0.1c-0.3,0.2-0.5,0.2-0.6,0.2c-0.6,0.2-1.2,0.7-1.8,1.5h0.2l2.2-0.3
	c0.2,0.1,0.5,0.1,1,0c0.3-0.1,0.4-0.1,0.6-0.1c1,0,2,0.1,3,0.2c0.6,0.2,1,0.7,1.1,1.7c0,0.1,0,0.2,0,0.2c0,0.2,0,0.4,0.1,0.7
	c0,0.3,0,0.5,0,0.7c0,0.5-0.1,0.9-0.3,1.4l-0.4,0.3c-0.2,0.2-0.3,0.4-0.4,0.5c-0.1,0.1-0.2,0.2-0.3,0.2l-1,0.3c-0.1,0-0.3,0-0.7,0
	c-0.4,0.1-0.7,0.1-0.9,0.1h-0.1l-1.2-0.5c-0.4-0.4-0.8-0.7-1.2-0.9v-0.1c0.1-0.4,0.3-0.6,0.7-0.8c0.1,0,0.3,0,0.6,0
	c0.3,0.1,0.4,0.1,0.6,0.1c0.3,0,0.6,0,1.1-0.1c0.5,0,0.9,0,1,0c0.5-0.3,0.7-0.7,0.7-1.2c0-0.2,0-0.3-0.1-0.3
	c-0.1-0.2-0.9-0.3-2.4-0.5c-2-0.2-3,1-2.8,3.6c-0.3,1.4,0.6,2.1,2.6,2c0.8,0,1.6-0.1,2.4-0.2c0.6-0.4,1-0.8,1.3-1.4
	c0.1,0,0.1-0.1,0.2-0.2c0-0.1,0.1-0.2,0.2-0.2c0.1-0.1,0.2,0,0.3,0.2l0.3,0.7c0.7,1.1,0.5,2-0.7,2.8c-0.6,0.4-1.3,0.6-2.1,0.7
	c-0.2,0-0.5,0-1,0c-1.3,0.1-2.3,0-3-0.1c-0.4,0-0.7,0-0.9-0.1c-0.4,0-0.7-0.1-0.9-0.3c-0.5-0.6-0.8-1.5-0.9-2.7c0-0.3,0-0.8,0.1-1.4
	s0.1-1,0.1-1.2c0-0.7,0-1.1-0.1-1.4c0-0.1,0-0.2-0.1-0.2c-0.1-0.1-0.1-0.4-0.1-0.7c-0.1-0.2-0.1-0.4-0.1-0.6h-0.1
	c-0.6,0.4-1.1,0.7-1.6,0.9c-0.1,0-0.2,0-0.3,0s-0.3,0-0.4,0c-0.1,0-0.2-0.3-0.2-0.8c0.9-1.7,2.7-3.3,5.3-4.8
	c0.7-0.5,1.5-0.8,2.4-0.8c0.1,0,0.1,0,0.2,0c0.1,0.1,0.3,0.2,0.4,0.2c0.3,0.1,0.4,0.1,0.5,0.1c0.5,0.4,1,0.6,1.3,0.8
	c0.9,0.3,1.6,0.6,2.2,1c0.2,0.2,0.5,0.6,0.9,1c0.3,0.5,0.6,0.8,0.8,1l0.3-1v-1.5c-0.1-0.1-0.1-0.2-0.1-0.2c0.1-0.2,0.2-0.4,0.5-0.5
	c0.6,0.2,0.9,0.5,1,1.1c0,0.5,0,0.9,0,1.2c0,0.2,0,0.3,0,0.6c-0.1,0.4-0.1,0.7,0,0.9c0.3,0.6,0.6,0.9,1,0.9c0.9-0.1,1.5-0.5,1.7-1.1
	c0-0.3,0-0.8,0-1.4c0.1-1.1,0.1-2,0-2.5c0.1-0.5,0.3-0.7,0.6-0.8c0.5,0.1,0.9,0.4,1.1,1c0,0.3,0,0.6,0.1,0.9c0,1.4-0.1,2.7-0.2,4.1
	c0,0.2,0,0.6,0.1,1.2l0.1,0.1c-0.1,0.3,0,0.8,0.1,1.5c0.1,0.5,0.2,0.9,0.2,1.2c0,0.2-0.1,0.5-0.2,0.7s-0.1,0.3-0.1,0.3
	c-0.9,2.1-2.3,3.3-4.2,3.5c-0.1,0-0.2,0-0.3,0c-0.4,0-0.8-0.1-1.3-0.3C255.4,400.7,255.3,400.7,255.2,400.7z"/>
<path d="M267.2,400.1c0-0.3,0.5-0.4,1.6-0.4c0.2,0,0.4,0,0.6,0h0.1c0.1,0,0.2,0,0.3,0h0.1h0.1c1.2-0.1,1.7-0.4,1.7-0.9
	c0-0.1-0.1-0.2-0.2-0.2c-0.1-0.1-0.1-0.1-0.2-0.1c-0.7-0.2-1.4-0.3-2.1-0.2c-0.4,0-0.8,0-1,0c-0.1,0-0.2,0-0.4,0
	c-0.2,0.1-0.4,0.1-0.6,0.1s-0.3-0.3-0.3-0.8c0.1-0.5,0.2-0.8,0.3-0.8c0.4,0,0.9,0,1.5,0c0.1,0,0.2,0,0.3,0c0.7,0,1.1,0,1.2-0.1
	c0.2,0,0.4,0,0.4-0.1c0.1,0,0.2,0,0.3-0.1v-0.1c-0.1-0.1-0.2-0.2-0.3-0.3c-0.2-0.2-0.5-0.4-0.9-0.7c-0.2-0.1-0.4-0.3-0.6-0.4
	c-0.1,0.1-0.4,0.1-0.7,0.1c-0.2,0.1-0.4,0.3-0.6,0.5c-0.1,0.2-0.2,0.4-0.4,0.4c-0.1,0-0.2,0.1-0.4,0.2c-0.2,0.2-0.5,0.4-0.7,0.4
	c-1,0.7-1.9,0.8-2.7,0.1v-0.2l-0.1-0.1v-0.1l0.4-0.3l2.9-2.4h0.1c0.1-0.1,0.2-0.1,0.3-0.2l0.2-0.2c0.4-0.1,0.8-0.4,1.2-0.8
	c0.2-0.1,0.4-0.2,0.4-0.3c-0.2-0.1-0.5-0.1-0.7-0.1s-0.5,0-0.8,0.1c-0.4,0.1-0.7,0.2-0.9,0.2c-0.6,0-1.1-0.1-1.7-0.3
	c-0.2-0.1-0.3-0.2-0.3-0.3c0-0.1,0.1-0.2,0.2-0.3c0.1-0.1,0.1-0.1,0.1-0.2c0.6-0.5,1.3-0.8,2-0.8c0.2,0,0.5,0,0.8,0.1
	c0.4,0.1,0.8,0.2,1,0.2c0.8,0,1.2-0.3,1.2-0.9c0-0.5-0.3-0.8-0.9-0.8c-0.1,0-0.3,0-0.7,0c-0.6-0.1-0.9-0.1-1-0.1c-0.2,0-0.5,0-0.7,0
	c-0.1,0-0.1,0-0.2-0.1c-0.5-0.1-0.7-0.3-0.7-0.5c0.1-0.5,0.5-0.8,1.5-0.9c0.3,0,0.6,0.1,0.8,0.2h1.4c0.6-0.1,0.9-0.4,0.9-0.9
	c0.1-0.1,0.1-0.3,0.1-0.7c0.2-0.5,0.5-0.8,0.8-0.9c0.2,0,0.4,0.3,0.5,0.9c0,0.2,0,0.4,0,0.4c0,0.3,0.1,0.6,0.3,0.9
	c0.7,0.1,1.5,0.1,2.2,0.1c0.4,0,0.7,0,0.9,0l0.2-0.1l0.7-1c0.1-0.1,0.2-0.1,0.3-0.1c0.2,0.1,0.4,0.3,0.5,0.8c0,0.4-0.2,1.1-0.7,1.9
	c-0.1,0.2-0.2,0.4-0.3,0.4c-0.1,0.1-0.2,0.2-0.3,0.3c-0.3,0.2-0.5,0.4-0.6,0.7l0.2,0.1c0.2,0,0.4,0,0.7,0.1c0.3,0,0.5,0,0.6,0
	s0.2,0,0.3,0c0.2-0.4,0.5-0.7,1-0.9c0.8-0.4,1.2-1,1.2-1.7c0-0.1,0-0.3-0.1-0.4s-0.1-0.3-0.1-0.3c0.1-0.7,0.4-1,0.9-1
	c0.7,0.1,1,0.8,1.1,2.1c0,0.2,0,0.4-0.1,0.7c0,0.1,0,0.2-0.1,0.3c0,0.1,0,0.2-0.1,0.2c0,0.1,0.5,0.2,1.4,0.2c2.2-0.1,3.3,0.3,3.3,1
	s-0.2,1-0.7,1c-0.2,0.1-0.6,0.1-1.1,0.2c-0.3,0.1-0.5,0.1-0.6,0.1v0.1c0,0.1,0,0.2-0.1,0.3c0,1.2-0.2,2.8-0.7,4.8v0.1
	c0.1,0.5,0.3,0.9,0.6,1.1c0.1,0,0.3,0,0.5,0.1c0.2,0,0.3,0,0.4,0.1c0.6,0,1.1-0.3,1.5-0.9l0.1,0.2c0,0.3,0,0.5,0.1,0.5l0.1,0.1
	c0.2,0.1,0.3,0.4,0.3,0.7c0,0.4-0.4,0.9-1.1,1.4c-0.1,0.1-0.1,0.1-0.2,0.1c-0.3,0.3-0.8,0.4-1.4,0.4c-0.5,0-1.1-0.3-1.8-0.8
	c-0.4-0.3-0.7-0.5-0.9-0.5c-0.2,0.1-0.5,0.2-0.6,0.3c-0.1,0.1-0.2,0.1-0.4,0.2c-0.9,0.5-1.6,0.7-2.2,0.7c-0.2,0-0.3,0-0.4-0.1
	s-0.1-0.1-0.2-0.2s-0.2-0.3-0.3-0.5c-0.1-0.1-0.1-0.3-0.2-0.3v-0.8c0-0.3,0.2-0.5,0.5-0.5c0.5,0,1.3-0.3,2.1-0.9
	c0.1,0,0.1-0.1,0.1-0.2v-0.1c-0.2-0.3-0.4-0.8-0.6-1.5v-0.2c-0.1-0.2-0.2-0.5-0.3-0.9c-0.2-0.4-0.3-0.8-0.3-1.1c0-0.7,0.2-1,0.7-1
	c0.2,0,0.5,0.1,0.6,0.4c0.1,0.1,0.1,0.1,0.2,0.2s0.1,0.3,0.1,0.3c0,0.1,0,0.2,0,0.4c0.1,1.3,0.4,2,0.9,2.1c0.3-0.1,0.6-0.5,0.7-1.4
	c0.1-0.4,0.1-1,0.2-1.7c0-0.1,0-0.2,0-0.3c0.1-0.6-0.2-0.8-0.8-0.8c-0.1,0-0.1,0-0.2,0c-0.2,0.1-0.8,0.1-1.7,0.2
	c-0.4,0-0.8-0.1-1.2-0.4c-0.1,0-0.3,0-0.6,0c-0.3,0.1-0.5,0.1-0.6,0.1c-0.4,0.1-1.1,0.2-2.1,0.1c-0.6,0.1-1.3,0.3-1.9,0.8
	c-0.5,0.1-0.8,0.2-0.8,0.3c0.1,0,0.3,0,0.5,0c0.2,0.1,0.4,0.1,0.5,0.1s0.3,0,0.6-0.1h0.6h0.2c1.3-0.1,1.9,0.4,1.8,1.3
	c0,0.1,0,0.3-0.1,0.5s-0.1,0.4-0.2,0.5s-0.1,0.1-0.2,0.2c-0.3,0.3-0.5,0.6-0.5,1c0.3,0,0.5,0,0.7,0c0.1,0,0.2,0,0.4-0.1
	c0.1,0,0.2,0,0.3,0c0.4,0,0.8,0.1,1.2,0.3c0,0.1,0.1,0.2,0.2,0.3c0,0.6-0.2,0.9-0.7,1h-0.3c-0.8-0.1-1.3-0.1-1.4,0
	c-0.1,0-0.3,0-0.5,0c0,0.7-0.1,1.5-0.4,2.3c-0.3,0.4-0.7,0.7-1.2,0.9c-0.1,0.1-0.2,0.1-0.3,0.2c-0.6,0.3-1.1,0.4-1.6,0.4
	c-1.3-0.1-2.2-0.3-2.7-0.8C267.4,401.1,267.2,400.7,267.2,400.1z M271.1,394.7c0.3,0.5,0.7,0.9,1.2,1.1c0.2-0.1,0.5-0.5,0.7-1
	C273,394.6,272.4,394.5,271.1,394.7z M271.6,389.8c0.1,0.3,0.2,0.4,0.4,0.4c0.1,0,0.2-0.1,0.5-0.2c0.2-0.1,0.4-0.2,0.6-0.4
	c0.3-0.2,0.5-0.4,0.5-0.5s0-0.1-0.1-0.1c-0.2,0-0.4,0-0.6,0.1s-0.3,0.1-0.5,0.1s-0.3,0-0.4,0C271.7,389.3,271.6,389.5,271.6,389.8z"
	/>
<path d="M289.6,391.8c0-0.2,0.1-0.5,0.3-0.8c0.1-0.3,0.2-0.6,0.4-0.9l0.1-0.2c0.1-0.1,0.1-0.1,0.2-0.1c0.2-0.1,0.3-0.2,0.3-0.4
	c0-0.1,0-0.2-0.1-0.3c-0.1,0-0.2,0-0.3,0c-0.2,0-0.5,0-0.8,0c-0.4,0.1-0.6,0.1-0.8,0.1c-1.2,0-1.8-0.3-1.8-0.8
	c0-0.1,0.1-0.3,0.2-0.3c0.5-0.5,1.2-0.8,1.8-0.8c0.1,0,0.3,0,0.6,0.1c0.2,0.1,0.4,0.1,0.6,0.1c0.3,0,0.8,0,1.4-0.1s1.1-0.1,1.4-0.1
	c0.1-0.1,0.3-0.1,0.7,0h0.2c0.1,0,0.2,0,0.4,0c1-0.1,1.5-0.4,1.5-1v-0.1v-0.1c-0.1-0.2,0-0.4,0.2-0.5h1.1c0.1,0,0.2,0,0.4,0.1
	c0.2,0,0.3,0,0.4,0.1s0.2,0.4,0.3,0.9c0.1,0.4,0.1,0.5,0.2,0.5c2.2,0.1,4.4,0.2,6.7,0.2c0.9-0.1,1.3,0.1,1.3,0.7
	c0,0.5-0.4,0.8-1.2,0.8c-0.4,0-0.7,0-1.1,0c-0.4,0.1-0.8,0.1-1.2,0l-0.3,0.1c0.1,0.2,0.3,0.5,0.6,0.8c0.5,0.5,0.7,1,0.7,1.5
	c-0.2,0.6-0.5,0.9-0.8,1.1h-0.1c-0.1,0-0.3,0-0.6-0.1h-0.4h-0.2c-2.3,0.2-3.9,0.3-4.9,0.2c-0.2,0-0.5,0-0.8-0.1c-0.4,0-0.6,0-0.8,0
	c-0.3,0-0.8,0-1.5,0.1s-1.2,0.2-1.6,0.2c-0.1,0-0.2,0-0.4,0c-0.1,0-0.3,0-0.5,0C290.1,392.5,289.6,392.2,289.6,391.8z M287.6,400
	v-0.2c0-0.1,0.1-0.1,0.2-0.1c0.8-0.3,1.3-0.7,1.5-1.2c-0.1-1.9,0.2-3.2,0.6-3.9c0.7-0.7,1.1-1.1,1.2-1.1s0.2,0.1,0.3,0.2l0.1,0.1
	h0.1c0.5-0.1,1.2-0.2,2-0.2c0.1,0,0.2,0,0.5-0.1c0.2,0,0.5,0,0.6,0c2.4-0.1,4.5-0.1,6.1,0.1c0.7,0,1.3,0.1,1.8,0.3
	c0.1,0.1,0.2,0.2,0.5,0.3c0.2,0.2,0.4,0.4,0.4,0.4c0.4,0.4,0.7,1,0.7,1.9c0,0.1,0,0.2,0.1,0.3c0.1,0.3,0.2,0.5,0.2,0.7
	c0,0.1,0,0.2,0,0.3c-0.1,0.4-0.1,0.6,0,0.8c0,0.2,0,0.5,0.1,0.8c0,0.4,0,0.7,0,0.9c0,0.5-0.1,1-0.2,1.4c-0.2,0.3-0.6,0.4-1.1,0.4
	c-0.2,0-0.3,0-0.4,0h-0.1c-0.2-0.1-0.4-0.3-0.4-0.5s0-0.4,0-0.7c0-0.2,0-0.4,0-0.4c0-0.1-0.1-0.1-0.2-0.1c-2.7-0.1-4.9-0.1-6.3,0
	c-0.4,0-0.9,0-1.6-0.1c-0.6,0-1.1,0-1.4,0c-0.7,0-1.3,0.2-1.8,0.5c-0.1,0.1-0.3,0.2-0.5,0.4c-0.2,0.3-0.4,0.5-0.5,0.5
	c-0.6,0.4-1.1,0.4-1.6,0.2C288,401.6,287.7,401,287.6,400z M291.3,396.3L291.3,396.3c0.3,0,0.6,0,0.7,0s0.2,0,0.4,0
	c0.7,0.1,1.3,0,1.6-0.2c0.2,0.1,0.7,0.1,1.4,0.1c0.3,0,0.7,0,1.3-0.1c0.6,0,0.9,0,1.2,0c0.1,0,0.4,0,0.9,0c0.6,0.1,1,0.1,1.1,0.1
	c0.5,0,1,0,1.6,0c0.1,0,0.2,0,0.3-0.1l0.3-0.1v-0.1c-0.1-0.4-0.6-0.7-1.3-0.8c-0.2-0.1-0.4-0.1-0.5-0.1l-0.5-0.1c-0.4,0-0.6,0-0.6,0
	h-0.1c-0.1,0-0.2,0-0.3,0c-0.1,0.1-0.2,0.1-0.3,0.1c-0.7,0.1-1.3,0.1-1.8,0.1c-0.6,0-1.2,0-1.7,0c-0.3,0-0.6,0-0.8,0
	C292.3,395.3,291.4,395.7,291.3,396.3z M291.3,398.4c0,0.2,0.2,0.3,0.5,0.3c0.5,0,1.2,0,2.1-0.1c1-0.1,1.7-0.1,2.1-0.1
	c0.2,0,0.6,0,1.4,0c2,0.1,3.5,0.2,4.3,0.1c0.4,0,0.6-0.1,0.6-0.3c0.1-0.4-0.3-0.7-1.3-0.8c-0.2,0-0.8,0-1.6-0.1c-0.7,0-1.3,0-1.6,0
	c-0.7,0-1.8,0-3.4,0.1c-0.7,0.1-1.2,0.1-1.3,0.1C292,397.8,291.4,398,291.3,398.4z M292.9,390.3c0.4,0,0.8,0,1.2,0
	c0.1,0,0.2,0,0.5,0l0.4,0.1c0.5,0,0.8,0,0.8-0.1c1.5,0.1,2.9,0.2,4.4,0.2c0.1,0,0.1,0,0.2-0.1c0.2-0.1,0.4-0.2,0.4-0.3
	c0-0.2-0.1-0.4-0.2-0.4c-0.5-0.4-0.9-0.7-1.4-0.7c-0.1,0-0.2,0-0.4,0c-0.6,0-1.2,0.1-1.7,0.2c-0.1,0-0.2,0-0.3,0.1h-0.2l-0.2-0.1
	c-0.1,0-0.1,0-0.2,0h-0.1c-0.1,0.1-0.1,0.1-0.2,0.1c-0.1-0.1-0.2-0.1-0.3-0.1c-0.5-0.1-1-0.2-1.6-0.2c-0.1,0-0.3,0-0.5,0
	c-0.1,0.1-0.2,0.1-0.3,0.2c-0.4,0.3-0.5,0.6-0.5,1L292.9,390.3z"/>
<path class="st0" d="M185.9,394.7c5.4-1.6,12.8-4,11-7.7c-1.9-3.7-6-0.7-7.2,0.2c-1.2,0.9-2.5,2-4.6,3.1c-1.5,0.4-1.8-1-1.1-1.8
	s7-6.3,7.5-6.7c0.5-0.4,2.7-2.3,0.6-4.3c-2.1-2-3.6-0.3-3.8-0.1c-0.2,0.3-0.7,0.8-2.9,4.6c-3.2,5.8-4.7,4.8-4.7,4.8
	s-1.9-0.6-0.2-3.1c5.1-6.9,5.9-10.4,2.9-11.3s-3.6,2-4.2,5c-1.4,6.6-2,8.1-3.4,8s-1.7-0.9-1.5-2.3s2-6.3-1-6.5s-4.5,2.1-5.1,8.4
	c-0.3,4.8-2.4,6.3-3.4,6.3c-1.8,0-1.9-1.6-1.9-1.6c-1.1,9.3,2.6,11.2,4.9,11.1c2.3-0.1,3.6-0.8,4.4-2.6c0.8-1.7,0.2-2.9-0.1-3.5
	c-0.2-0.6-0.8-1.2,0-1.8c0.8-0.5,1.3,0.5,1.3,0.5s0.5,1.1,1.3,0.8c0.8-0.3,0.9-1.1,0.9-1.6s0.4-2.3,1.5-2.1c1.1,0.3-0.2,1.7-0.4,2
	s-1,1.1-0.1,1.9c0.7,0.6,1.6-0.9,1.6-0.9s1.2-2,2.2-1.2c0.8,0.7-1.5,2.3-1.5,2.3s-0.5,0.3-0.7,0.4s-0.7,0.5-0.2,1
	c0.4,0.3,1.2-0.3,1.2-0.3s1.6-0.9,2,0.2s-2,1-2.1,1s-1.5-0.1-1,1c0.3,0.5,1.4,0.3,1.4,0.3s1.6-0.2,1.4,0.6c-0.1,0.7-1.7,0.2-2.6,0.3
	c-0.9,0.1-2.4,0.1-3.2,0.9l0,0c2.5,0,4.8,0.5,6.1,0.9c1.8,0.6,14.3,5.1,15-0.3s-7-3.2-10.8-3.2c-1.2,0-2.3,0.1-2.3-0.8
	C183,395.8,183.3,395.5,185.9,394.7z"/>
<g class="st1">
	<path d="M201.1,407.3c0-0.2,0.1-0.2,0.2-0.2c0.1,0,0.2,0.1,0.2,0.2c-0.1,0.7-0.2,1.6-0.5,2.6v6.4c0,0.1-0.1,0.2-0.2,0.2
		c-0.1,0-0.2-0.1-0.2-0.2v-5.4c-0.1,0.1-0.1,0.2-0.3,0.5c-0.1,0.3-0.3,0.6-0.4,0.8c-0.1,0.1-0.2,0.2-0.3,0.1
		c-0.1-0.1-0.1-0.2-0.1-0.3C200.4,410.4,200.9,408.9,201.1,407.3z M208.6,408.8c0.1,0,0.2,0.1,0.2,0.2c0,0.1-0.1,0.2-0.2,0.2h-6.9
		c-0.1,0-0.2-0.1-0.2-0.2c0-0.1,0.1-0.2,0.2-0.2H208.6z M202.7,413.2h5c0.5,0,0.7,0.2,0.7,0.7v1.5c0,0.5-0.2,0.8-0.7,0.8h-5.1
		c-0.4,0-0.7-0.2-0.7-0.7V414C202,413.5,202.2,413.2,202.7,413.2z M202.4,410.3h5.6c0.1,0,0.2,0.1,0.2,0.2c0,0.1-0.1,0.2-0.2,0.2
		h-5.7c-0.1,0-0.2-0.1-0.2-0.2C202.2,410.3,202.3,410.3,202.4,410.3z M202.4,411.7h5.7c0.1,0,0.2,0.1,0.2,0.2c0,0.1-0.1,0.2-0.2,0.2
		h-5.7c-0.1,0-0.2-0.1-0.2-0.2C202.2,411.8,202.3,411.7,202.4,411.7z M207.8,415.9c0.2,0,0.2-0.1,0.2-0.2v-1.8
		c0-0.2-0.1-0.2-0.2-0.3h-5.2c-0.2,0-0.2,0.1-0.2,0.2v1.8c0,0.2,0.1,0.2,0.3,0.2H207.8z M204.4,407.1c0.1,0.1,0.1,0.2,0.3,0.3
		c0.2,0.1,0.4,0.4,0.8,0.9c0.1,0.1,0.1,0.2,0,0.3c-0.1,0.1-0.2,0.1-0.3,0c-0.4-0.5-0.7-0.9-1.1-1.2c-0.1-0.1-0.1-0.2,0-0.3
		C204.2,407,204.3,407,204.4,407.1z"/>
	<path d="M213.4,413.5c-0.3,1-0.7,1.9-1.2,2.5c-0.1,0.1-0.2,0.1-0.3,0.1c-0.1-0.1-0.1-0.2,0-0.3c0.4-0.6,0.8-1.4,1.1-2.3
		c0.1-0.1,0.1-0.1,0.3-0.1C213.4,413.3,213.5,413.4,213.4,413.5z M216.2,407.1c0.1-0.1,0.1-0.1,0.3-0.1c0.1,0.1,0.1,0.1,0.1,0.2
		c-0.2,0.3-0.3,0.6-0.4,0.7h3c0.5,0,0.8,0.3,0.8,0.8v3.4c0,0.5-0.3,0.7-0.8,0.7h-5.6c-0.7,0-1-0.3-1-0.8v-3.4c0-0.5,0.3-0.7,0.8-0.7
		h2.3C215.9,407.7,216,407.5,216.2,407.1z M213.4,408.3c-0.3,0-0.4,0.2-0.4,0.5v0.6h6.6v-0.7c0-0.2-0.1-0.4-0.4-0.4H213.4z
		 M213.1,409.7v1.1h6.6v-1.1H213.1z M213.1,411.2v0.7c0,0.3,0.2,0.4,0.5,0.4h5.7c0.3,0,0.4-0.1,0.4-0.4v-0.7H213.1z M214.9,413.3
		v1.8c0,0.5,0.3,0.8,0.9,0.8h1.3c1,0.1,1.4-0.3,1.3-1.3c0-0.1,0.1-0.2,0.2-0.2c0.2,0,0.2,0.1,0.2,0.2c0.1,1.3-0.4,1.9-1.7,1.8h-1.3
		c-0.8-0.1-1.2-0.4-1.3-1.1v-1.9c0-0.1,0.1-0.2,0.2-0.2C214.9,413.1,214.9,413.2,214.9,413.3z M216.6,413.1c0.4,0.6,0.7,1.3,0.8,2.1
		c0,0.1-0.1,0.2-0.2,0.2c-0.1,0-0.2,0-0.2-0.1c-0.2-0.7-0.4-1.4-0.7-2c-0.1-0.1,0-0.2,0.1-0.2C216.4,413,216.5,413,216.6,413.1z
		 M219.4,413.4c0.6,0.6,1.1,1.3,1.6,2.2c0.1,0.1,0,0.2-0.1,0.3c-0.1,0-0.2,0-0.3-0.1c-0.3-0.6-0.8-1.4-1.5-2.2
		c-0.1-0.1-0.1-0.2,0-0.3C219.2,413.3,219.3,413.3,219.4,413.4z"/>
	<path d="M230.9,410.6c0.3,0,0.4,0.1,0.5,0.2c0,0.1-0.1,0.3-0.4,0.5c-0.6,0.5-1.4,0.9-2.3,1.3c-0.2,0.1-0.3,0.1-0.3,0.2
		c0,0.1,0.1,0.1,0.2,0.2c0.1,0.1,0.2,0.2,0.2,0.3h3.9c0.1,0,0.2,0.1,0.2,0.2c0,0.1-0.1,0.2-0.2,0.2H229c0.4,1.7,0.1,2.7-0.9,2.9
		c-0.6,0.1-1.2,0-1.8-0.3c-0.1-0.1-0.2-0.1-0.2-0.3c0.1-0.1,0.2-0.2,0.3-0.1c1.1,0.4,1.8,0.4,2.1,0c0.4-0.6,0.4-1.4,0-2.2h-4.6
		c-0.1,0-0.2-0.1-0.2-0.2c0-0.1,0.1-0.2,0.2-0.2h4.5c-0.1-0.1-0.1-0.1-0.3-0.2c-0.2-0.2-0.3-0.3-0.3-0.4c0-0.1,0.3-0.2,0.9-0.5
		c0.9-0.4,1.6-0.7,2-1c0.1-0.1,0-0.1-0.2-0.1h-5.1c-0.1,0-0.2-0.1-0.2-0.2c0-0.1,0.1-0.2,0.2-0.2H230.9z M231.4,407.1
		c0.1-0.2,0.2-0.2,0.4-0.1c0.1,0.1,0.1,0.2,0,0.4c-0.3,0.7-0.7,1.2-1.1,1.8h1.3c0.5,0.1,0.7,0.3,0.7,0.8c-0.1,0.6-0.2,1.2-0.4,1.6
		c-0.1,0.1-0.1,0.1-0.2,0.1c-0.1-0.1-0.1-0.1-0.1-0.3c0.4-1.3,0.5-1.8,0-1.8h-7.3c-0.2,0-0.4,0.1-0.4,0.3v1.6c0,0.1-0.1,0.2-0.2,0.2
		c-0.2,0-0.2-0.1-0.2-0.2v-1.7c0-0.4,0.2-0.6,0.7-0.7h5.6C230.7,408.4,231.1,407.8,231.4,407.1z M225,407.1c0.5,0.5,0.9,1,1.1,1.4
		c0.1,0.1,0,0.2-0.1,0.3c-0.1,0-0.2,0-0.3-0.2c-0.3-0.4-0.7-0.9-1.1-1.3c-0.1-0.1-0.1-0.2,0-0.3C224.7,407,224.8,407.1,225,407.1z
		 M227.8,407.1c0.5,0.6,0.8,1.1,1,1.5c0.1,0.2,0.1,0.3-0.1,0.3c-0.1,0-0.2,0-0.3-0.2c-0.3-0.5-0.6-1-0.9-1.4c-0.1-0.1-0.1-0.2,0-0.3
		C227.6,406.9,227.7,406.9,227.8,407.1z"/>
	<path d="M239.7,407.2c-0.1,0.3-0.1,0.5-0.2,0.8h5.2c0.2,0,0.2,0.1,0.2,0.2c0,0.2-0.1,0.2-0.2,0.2h-5.4c-0.5,1.2-1.1,2.3-1.9,3.4
		v4.6c0,0.1-0.1,0.2-0.2,0.2c-0.1,0-0.2-0.1-0.2-0.2v-4c-0.4,0.5-0.8,1-1.2,1.4c-0.1,0.1-0.2,0.1-0.4,0c-0.1-0.1,0-0.2,0.1-0.4
		c1.6-1.7,2.7-3.4,3.2-5h-3c-0.2,0-0.2-0.1-0.2-0.2c0-0.1,0.1-0.2,0.2-0.2h3.2c0-0.1,0.1-0.1,0.1-0.2c0.1-0.3,0.2-0.5,0.2-0.6
		c0-0.1,0.1-0.1,0.2-0.1C239.6,407,239.7,407.1,239.7,407.2z M241.7,409.8v2h2.9c0.1,0,0.2,0.1,0.2,0.2c0,0.1-0.1,0.2-0.2,0.2h-2.9
		v3.6h3c0.2,0,0.2,0.1,0.3,0.2c0,0.2-0.1,0.2-0.2,0.2h-6.3c-0.1,0-0.2-0.1-0.2-0.2c0-0.2,0.1-0.2,0.2-0.2h2.9v-3.6h-2.8
		c-0.1,0-0.2-0.1-0.2-0.2c0-0.1,0.1-0.2,0.2-0.2h2.8v-2c0-0.1,0.1-0.2,0.2-0.2C241.6,409.6,241.7,409.7,241.7,409.8z"/>
	<path d="M250.9,414.2c0.2-0.1,0.3-0.1,0.3,0c0.1,0.1,0,0.2-0.2,0.3c-1.4,0.7-2.5,1.1-3.3,1.3c-0.2,0.1-0.2,0-0.3-0.1
		c0-0.1,0-0.2,0.2-0.3C248.6,415.3,249.7,414.8,250.9,414.2z M249.1,407.2c0.1-0.1,0.1-0.2,0.3-0.2c0.1,0.1,0.2,0.1,0.1,0.3
		c-0.5,1.4-1,2.4-1.4,3c0.5-0.1,1.1-0.1,1.6-0.2c0.3-0.4,0.5-1,0.8-1.8c0.1-0.2,0.1-0.2,0.3-0.2c0.1,0,0.2,0.1,0.1,0.3
		c-0.8,1.9-1.7,3.5-2.7,4.7c1.3-0.2,2.2-0.4,2.6-0.5c0.1,0,0.2,0,0.2,0.1c0,0.1,0,0.2-0.2,0.3c-1.1,0.2-2,0.4-2.9,0.5
		c-0.2,0-0.3,0-0.4-0.1c0-0.1,0-0.2,0.2-0.4c0.8-1,1.4-1.8,1.8-2.6c-0.2,0-0.5,0.1-0.8,0.1c-0.3,0-0.6,0.1-0.8,0.1
		c-0.2,0-0.3,0-0.3-0.1c0-0.1,0-0.2,0.1-0.3C248.3,409.4,248.8,408.3,249.1,407.2z M252.5,407.1c0-0.2,0.1-0.2,0.2-0.2
		c0.1,0,0.2,0.1,0.2,0.2c0,0.2,0,0.6,0.1,1.2c0,0.2,0,0.3,0,0.4l3.1-0.4c0.2,0,0.3,0,0.3,0.1c0,0.2-0.1,0.2-0.2,0.3l-3.1,0.4
		c0.1,0.7,0.1,1.3,0.2,1.8l3.2-0.4c0.2,0,0.2,0.1,0.3,0.2c0,0.1,0,0.2-0.2,0.2l-3.2,0.4c0.2,0.8,0.4,1.6,0.8,2.3
		c0.8-0.7,1.4-1.4,1.8-2.1c0.1-0.1,0.2-0.2,0.3-0.1c0.1,0.1,0.1,0.2,0,0.4c-0.6,0.8-1.2,1.5-2,2.2c0.8,1.1,1.4,1.8,1.9,2
		c0.2,0,0.4-0.8,0.4-2.5c0-0.1,0.1-0.2,0.2-0.2c0.1,0,0.2,0.1,0.2,0.2c0,2-0.2,3-0.6,2.9c-0.6-0.1-1.3-0.8-2.3-2.2
		c-0.9,0.7-2.1,1.3-3.5,1.9c-0.1,0.1-0.2,0-0.3-0.1c-0.1-0.1,0-0.2,0.1-0.3c1.4-0.5,2.5-1.2,3.4-1.9c-0.3-0.8-0.6-1.7-0.8-2.5
		l-2.3,0.3c-0.1,0-0.2-0.1-0.3-0.2c0-0.1,0.1-0.2,0.2-0.2l2.3-0.3c-0.1-0.6-0.2-1.2-0.2-1.8l-1.6,0.2c-0.2,0-0.2-0.1-0.3-0.2
		c0-0.1,0.1-0.2,0.2-0.2l1.6-0.2c0-0.1,0-0.4,0-0.7C252.6,407.7,252.6,407.3,252.5,407.1z M254.3,407.2c0.5,0.2,0.9,0.4,1.4,0.7
		c0.1,0.1,0.1,0.2,0.1,0.3c-0.1,0.1-0.2,0.1-0.3,0c0,0-0.1,0-0.1-0.1c-0.5-0.3-1-0.5-1.3-0.7c-0.1-0.1-0.1-0.1-0.1-0.3
		C254.1,407.1,254.2,407.1,254.3,407.2z"/>
	<path d="M259.7,410.7h0.7c0.4,0,0.6,0.1,0.5,0.5v4.7c0,0.1,0,0.1,0.1,0c0.3-0.3,0.5-0.7,0.8-1.3c0.1-0.1,0.2-0.2,0.3-0.2
		c0.1,0.1,0.2,0.2,0.1,0.3c-0.4,0.8-0.7,1.3-1.1,1.6c-0.2,0.1-0.3,0.2-0.4,0.1c-0.1-0.1-0.2-0.2-0.2-0.4v-4.7c0-0.3-0.1-0.4-0.3-0.4
		h-0.5c-0.2,0-0.2-0.1-0.2-0.2C259.5,410.8,259.6,410.7,259.7,410.7z M260.2,407.4c0.9,0.8,1.4,1.4,1.6,1.8c0.1,0.2,0.1,0.3,0,0.4
		c-0.1,0.1-0.2,0-0.3-0.1c-0.5-0.7-1.1-1.2-1.6-1.8c-0.1-0.1-0.1-0.2,0-0.3C260,407.3,260.1,407.3,260.2,407.4z M265.7,410.7
		c0.2,0,0.2,0.1,0.2,0.2c0,0.1-0.1,0.2-0.2,0.2h-1.5v3.9c0.5-0.2,1.1-0.3,1.8-0.5c0.2-0.1,0.3,0,0.3,0.1c0,0.1,0,0.2-0.2,0.3
		c-0.8,0.3-2.1,0.6-3.9,1c-0.2,0-0.3,0-0.3-0.2c0-0.1,0-0.2,0.2-0.3c0.2-0.1,0.5-0.1,0.8-0.1c0.4-0.1,0.7-0.1,0.9-0.2v-4h-1.5
		c-0.2,0-0.2-0.1-0.2-0.2c0-0.1,0.1-0.2,0.2-0.2H265.7z M266.4,407.2c0,0.4,0,1,0.1,1.5h2.1c0.1,0,0.2,0.1,0.2,0.2
		c0,0.1-0.1,0.2-0.2,0.2h-2.1c0.3,3.9,0.9,6.2,1.9,6.8c0.3,0.1,0.4-0.7,0.4-2.4c0-0.2,0.1-0.3,0.2-0.3c0.1,0,0.2,0.1,0.2,0.3
		c0.1,2-0.2,3-0.7,2.9c-1.2-0.5-2-3-2.3-7.4h-3.8c-0.1,0-0.2-0.1-0.2-0.2c0-0.1,0.1-0.2,0.2-0.2h3.8c0-0.1,0-0.4,0-0.7
		c0-0.4,0-0.6,0-0.8s0.1-0.2,0.2-0.2C266.3,407,266.4,407.1,266.4,407.2z M267.4,407.1c0.2,0.2,0.6,0.5,1.1,1c0.1,0.1,0.1,0.2,0,0.4
		c-0.1,0.1-0.2,0.1-0.3,0c-0.4-0.4-0.7-0.8-1.1-1c-0.1-0.1-0.1-0.2,0-0.3C267.2,407.1,267.3,407.1,267.4,407.1z"/>
	<path d="M271.8,411.7h3.9c0.1,0,0.2,0.1,0.2,0.2c0,0.1-0.1,0.2-0.2,0.2h-1.6v1.1h1.4c0.1,0,0.2,0.1,0.2,0.2c0,0.1-0.1,0.2-0.2,0.2
		h-1.4v1.8c0.5,0.3,1.3,0.5,2.4,0.5h4.2c0.1,0,0.2,0.1,0.2,0.2c0,0.1-0.1,0.2-0.2,0.2h-4.3c-1.8,0-3.1-0.6-3.8-1.8
		c-0.2,0.8-0.4,1.3-0.6,1.6c-0.1,0.2-0.2,0.2-0.3,0.2c-0.1-0.1-0.2-0.2-0.1-0.4c0.5-0.8,0.7-1.9,0.8-3.3c0-0.2,0.1-0.2,0.3-0.2
		c0.1,0,0.2,0.1,0.2,0.3c0,0.4-0.1,0.8-0.2,1.3c0.3,0.4,0.6,0.8,1.1,1.3v-3.2h-1.8c-0.1,0-0.2-0.1-0.2-0.2
		C271.6,411.8,271.7,411.7,271.8,411.7z M272.7,407.1h2c0.5,0,0.7,0.2,0.7,0.7v2.5c0,0.4-0.2,0.7-0.7,0.7h-2c-0.4,0-0.7-0.2-0.7-0.7
		v-2.5C272,407.3,272.2,407.1,272.7,407.1z M272.7,407.5c-0.2,0-0.3,0.1-0.3,0.3v1h2.5v-1c0-0.2-0.1-0.3-0.3-0.3H272.7z
		 M272.4,409.2v1.1c0,0.2,0.1,0.3,0.3,0.3h1.9c0.2,0,0.3-0.1,0.3-0.3v-1.1H272.4z M278.5,410.1v0.7c0,0.7-0.1,1.5-0.2,2.3
		c0.1,0.1,0.2,0.1,0.3,0.2c1,0.8,1.7,1.4,2.1,1.8c0.1,0.1,0.1,0.2,0.1,0.3c-0.1,0.1-0.2,0.1-0.3,0c-0.8-0.8-1.6-1.4-2.2-1.9
		c-0.4,0.9-1.1,1.6-2.2,2.1c-0.2,0.1-0.3,0.1-0.4,0c-0.1-0.1,0-0.2,0.2-0.3c0.9-0.4,1.5-1,1.8-1.6c0.3-0.5,0.5-1.5,0.4-2.9v-0.7
		c0-0.2,0.1-0.2,0.2-0.2C278.5,409.9,278.5,410,278.5,410.1z M280.8,407.1c0.1,0,0.2,0.1,0.2,0.2c0,0.1-0.1,0.2-0.2,0.2h-2.3
		l-0.2,1.2h1.4c0.5,0,0.7,0.2,0.7,0.7v4.5c0,0.2-0.1,0.2-0.2,0.3c-0.2,0-0.2-0.1-0.2-0.3v-4.5c0-0.2-0.1-0.2-0.3-0.3h-2.9
		c-0.2,0-0.3,0.1-0.3,0.3v4.4c0,0.2-0.1,0.2-0.2,0.3c-0.1,0-0.2-0.1-0.2-0.3v-4.4c0-0.5,0.2-0.7,0.7-0.7h1l0.2-1.2h-1.8
		c-0.2,0-0.2-0.1-0.2-0.2c0-0.1,0.1-0.2,0.2-0.2H280.8z"/>
	<path d="M284.4,407.6h7.9c0.1,0,0.2,0.1,0.2,0.2c0,0.1-0.1,0.2-0.2,0.2h-3.7v5.1h4.2c0.1,0,0.2,0.1,0.2,0.2c0,0.1-0.1,0.2-0.2,0.2
		h-4.2v2.9c0,0.2-0.1,0.3-0.2,0.3c-0.2,0-0.2-0.1-0.2-0.3v-2.9h-4.3c-0.1,0-0.2-0.1-0.2-0.2c0-0.1,0.1-0.2,0.2-0.2h4.3V408h-3.8
		c-0.1,0-0.2-0.1-0.2-0.2C284.2,407.6,284.3,407.6,284.4,407.6z M285.4,408.5c0.6,1.1,1.1,2.4,1.4,3.9c0,0.2,0,0.3-0.2,0.4
		c-0.1,0-0.2,0-0.3-0.2c-0.4-1.4-0.8-2.7-1.4-3.8c-0.1-0.1-0.1-0.2,0.1-0.3C285.2,408.4,285.3,408.4,285.4,408.5z M291.4,408.7
		c0-0.1,0.1-0.2,0.2-0.2c0.1,0,0.2,0.1,0.2,0.2c-0.4,1.5-0.9,2.7-1.6,3.9c-0.1,0.1-0.2,0.2-0.3,0.1c-0.1-0.1-0.1-0.2,0-0.4
		C290.5,411.2,291,410,291.4,408.7z"/>
	<path d="M300.1,407.4c-0.8,1.2-1.9,2.3-3.4,3.3c-0.1,0.1-0.1,0.1,0,0.1c0,0,0,0,0.1,0c2.7,0,5.1-0.1,7.3-0.2
		c-0.6-0.8-1.4-1.6-2.3-2.4c-0.1-0.1-0.1-0.2,0-0.3s0.2-0.1,0.3,0c1,0.8,2,1.8,3,3.2c0.1,0.1,0.1,0.2,0,0.4
		c-0.1,0.1-0.2,0.1-0.3-0.1c-0.1-0.2-0.2-0.4-0.3-0.5c-2,0.2-4.6,0.2-7.9,0.2c-0.2,0-0.3-0.1-0.4-0.2c0-0.1,0.1-0.2,0.2-0.4
		c1.6-1.1,2.7-2.3,3.5-3.4c0.1-0.1,0.2-0.2,0.3-0.1C300.2,407.1,300.2,407.2,300.1,407.4z M297.7,411.9h5.7c0.7,0,1,0.3,1,0.9v2.5
		c0,0.6-0.3,0.9-0.9,0.9h-5.8c-0.7,0-1-0.2-1-0.8v-2.5C296.6,412.3,297,412,297.7,411.9z M297.7,412.4c-0.4,0-0.6,0.2-0.6,0.6v2.4
		c0,0.3,0.2,0.4,0.5,0.4h5.9c0.3,0,0.5-0.1,0.5-0.4v-2.4c0-0.4-0.2-0.5-0.5-0.5H297.7z"/>
</g>
<line class="st2" x1="162.7" y1="411.7" x2="195" y2="411.7"/>
</svg>
