<?xml version="1.0" encoding="utf-8"?>
<!-- Generator: Adobe Illustrator 17.0.0, SVG Export Plug-In . SVG Version: 6.00 Build 0)  -->
<!DOCTYPE svg PUBLIC "-//W3C//DTD SVG 1.1//EN" "http://www.w3.org/Graphics/SVG/1.1/DTD/svg11.dtd">
<svg version="1.1" id="图层_1" xmlns="http://www.w3.org/2000/svg" xmlns:xlink="http://www.w3.org/1999/xlink" x="0px" y="0px"
	 width="500px" height="180px" viewBox="0 127.5 500 180" enable-background="new 0 127.5 500 180" xml:space="preserve">
<path d="M192.863,238.409c-0.993,3.641-2.979,5.627-5.296,6.62c-1.655,0.662-3.972,0.662-7.282-0.662
	c-0.993-0.331-1.986-0.993-2.648-0.993c-0.662-0.662-1.324-0.993-2.317-0.993c-0.331-0.331-0.993-0.331-1.324-0.331
	c-0.331,0-0.662,0-0.993,0c-0.662,0.331-0.993,0.331-1.324,0.331c-0.331,0-0.993,0.331-1.986,0.662
	c-1.324,0.662-1.986,0.993-2.317,0.993l-0.993,0.331c-1.324,0.331-1.986,0.331-2.648,0.331h-0.331c-4.303,0-6.62-1.986-6.62-5.627
	c0-0.662,0.331-1.324,0.662-1.986c1.324,0,2.317,0,3.31,0c0.331,0,0.662,0,1.655-0.331h1.324c2.317,0,3.31-0.331,3.31-0.993
	c-0.331-1.324-0.993-1.986-1.324-2.317c-0.993-1.986-1.655-3.641-2.979-4.634h-0.331c-0.331,0-0.993,0.331-1.655,0.993l-0.331,0.331
	c-0.662,1.655-1.655,2.979-3.31,4.634c-2.648,2.979-5.958,4.634-9.93,4.965c-2.648-0.331-4.303-0.993-4.965-2.648
	c0-1.324,0-1.986,0.331-2.317c0.331-0.662,0.993-1.324,1.655-1.655c4.303-2.317,7.282-4.634,9.268-6.62
	c0.331-0.331,0.662-0.662,0.993-0.993c1.324-1.655,1.986-2.979,1.986-3.972v-0.662l-0.331-0.331c-1.324,0.331-2.648,0.331-3.641,0
	c-3.31,0-4.965-0.662-4.965-2.317c0.331-2.648,1.986-4.303,5.296-4.634c0.331,0,0.993,0,1.986,0.331
	c0.993,0.331,1.324,0.331,1.655,0.331c0.662,0,1.655-0.331,2.979-0.662c0.331-0.331,0.331-0.331,0.662-0.331
	c0.662-0.331,0.993-0.662,0.662-1.655c0-0.662,0-1.655-0.331-2.317c-3.972,0-7.282,0.331-9.599,0.993l-3.641,2.317
	c0,0.331,0,0.662-0.331,0.662l-0.331,0.331c-1.324,1.324-2.317,3.31-2.648,5.958c-0.331,4.303-0.331,7.944,0,10.923
	c0,1.655-0.331,2.317-0.662,2.648c-0.331,0.331-0.993,0.662-1.986,0.662c-0.331,0-0.331,0-0.662,0h-0.662
	c-1.655,0.331-2.648,0-2.979-0.993c0-0.331,0-1.324-0.331-2.979v-1.655c0-0.662,0-1.655,0-2.317c0-0.662,0-1.324,0-1.986
	c0-0.331,0-1.655,0.331-3.641c0-1.986,0-2.979,0-3.31c0-2.648,0.662-4.965,1.655-7.613c0.993-1.655,2.317-2.979,3.972-4.634
	c0.331-0.331,0.662-0.331,0.993-0.331c0.331,0,0.993,0.331,1.655,0.993h0.662c1.986,0,3.972-0.331,5.958-0.993v-0.331v-0.331
	c-0.331-1.324-0.662-1.986-0.662-2.317v-0.662c0.331-2.648-0.331-3.641-1.655-3.641c-0.331,0-0.331,0-0.662,0
	c-0.331,0.331-0.331,0.331-0.662,0.331c-0.993,0-1.986-0.331-3.31-1.655c0.331,0,0,0-0.331-0.331
	c-0.331-0.331-0.662-0.993-0.662-1.986c0-0.662,0.662-1.655,1.986-2.317h0.331c1.986-0.662,3.641-0.993,4.965-0.993
	c0.331,0,0.993,0,1.986,0c0.993,0.331,1.324,0.331,1.986,0.331c0.331,0,0.662,0,1.655,0c0.993-0.331,1.324-0.331,1.986-0.331
	c1.986,0,3.641,0,5.627,0c0.662,0,1.655,0,2.979,0c2.648,0.662,4.303,0.662,5.627,0c3.31,0,6.62-0.331,9.93-0.662
	c0.993,0.331,3.31,0.662,6.62,0.662c0.331,0,0.662,0,0.993,0s0.662,0.331,1.324,0.662c0.993,0.662,1.655,0.662,2.317,0.331v0.662
	c0,2.648-0.662,3.641-1.986,3.641c-1.324,0-2.648,0-3.641,0c-0.331,0-0.331,0-0.662,0.331c0,1.655,0,2.648-0.331,3.641
	c0,0.331,0,0.331-0.331,0.331c-0.331,0.331-0.331,0.662-0.331,1.655c0,0.662,1.324,0.993,3.972,0.993h0.662l4.303,0.993l1.986,2.648
	c0.331,0.662,0.331,0.993,0.331,0.993c1.986,5.627,2.648,12.578,2.648,21.846c-0.331,1.324-0.662,1.986-0.662,2.648
	c-0.662,1.655-1.986,2.648-3.641,2.648c-1.655-0.662-2.648-1.324-3.31-2.648c0-0.331,0-0.662,0.331-0.993
	c0.331-0.331,0.331-0.331,0.331-0.662c0.993-5.627,0.662-11.254-0.662-16.881c-0.331-1.655-1.324-2.979-2.648-3.641
	c-3.31-0.993-6.62-1.655-9.93-1.655c-0.331,0-1.655,0-3.31,0c-4.303,0.331-7.613,0.331-9.93,0.331h-0.662l-0.331,0.331
	c0.331,0,0.331,0.331,0.331,0.662c0,0.662,0,1.655,0,2.648c0.331,0.662,0.662,0.993,0.993,0.993c4.303,0,10.592,0,19.198-0.331
	c0.331,0,0.662,0,1.324,0l0.993,0.331c1.324,1.655,1.324,3.641,0,5.296l-1.986,0.331h-0.662c-7.282-0.331-12.247-0.331-15.226,0
	c-4.965,0-7.282,0.993-7.282,2.979c0,0.331,0.331,0.331,0.662,0.331h0.331c0.993-0.662,2.648-0.662,4.634-0.331
	c0.993,0,1.324,0,1.655,0c2.648-0.331,4.965-0.331,7.613-0.331c1.986,0,3.641,0,4.965,0.331l0.993,0.331
	c0.993,0.331,1.655,0.662,1.655,0.993c0,2.317-0.331,4.634-1.324,7.613c-0.331,0.331-0.662,0.993-1.655,1.986
	c-0.993,1.324-1.324,1.986-1.986,2.648l-0.331,0.331v0.331c0.331,0.331,2.648,0.662,6.951,0.662c0.331,0,0.993,0,1.986-0.331
	c0.662-0.331,0.993-0.331,1.324-0.331c0.993-0.331,1.324,0,1.324,0.662C193.194,238.078,193.194,238.409,192.863,238.409z
	 M157.446,203.985c0.993-0.331,2.648-0.331,4.634,0c0.993,0,1.986,0,2.648,0c0.993,0,1.655,0,1.655-0.331
	c0-0.662,0-1.324-0.331-2.648c-0.331-0.993-0.331-1.655-0.331-2.317c-0.331-0.662-0.993-0.993-1.986-0.993c-0.331,0-0.662,0-0.993,0
	c-0.993,0-2.317,0-3.31,0c-0.993,1.655-1.655,3.31-1.986,4.965C157.446,202.661,157.446,202.992,157.446,203.985z M170.355,228.81
	c0,0.662,0.662,1.324,1.655,2.648c0.331,0.662,0.662,0.993,0.662,0.993l0.331,0.331c0.331,0,0.662,0.331,0.993,0.662
	c0.331,0,0.662,0,0.993,0c3.641-0.662,5.627-2.317,5.958-4.965c0-0.662-0.331-0.993-0.993-0.993c-0.331,0-0.662,0-1.655-0.331
	h-0.993c-1.324,0-2.979,0.331-4.634,0.662h-0.331C171.017,227.817,170.355,228.148,170.355,228.81z M173.996,203.985
	c0.662,0,1.655,0,3.31,0c1.655-0.331,2.979-0.331,3.641-0.331h0.331c-0.331-0.662-0.662-1.655-0.993-2.648
	c0-0.331,0-0.331,0.331-0.662c0.331-0.662,0.331-1.324,0.331-1.986c0-1.655-0.993-1.986-2.979-1.986c-0.331,0-0.662,0-0.993,0
	c-0.993,0-1.655,0-2.979,0c-0.331,0-0.662,0-0.662,0.331c-0.662,0.662-1.324,2.648-1.655,5.958v0.662
	C172.672,203.654,173.334,203.985,173.996,203.985z"/>
<path d="M252.112,240.726c-0.993,0-2.317,0-3.972,0.331c-1.655,0-2.979,0-3.641,0c-0.662,0-0.993,0-1.655,0
	c-0.331,0-0.993,0-1.655-0.331c-1.324-0.331-2.648-0.331-3.31-0.662c-6.289-2.648-10.592-6.62-12.578-12.247
	c0-0.331,0-0.993-0.331-2.317c-0.331-2.648-0.662-4.303-0.993-4.634c0-0.331-0.331-0.331-0.993-0.331
	c-1.324,0.331-1.986,0.331-2.317,0.331c-0.331,0-0.662,0-1.324,0c-1.655,0-2.648,0-3.31-0.331c-0.331,0-0.993-0.331-1.986-0.662
	c-0.993,0-1.655,0-2.979,0l-0.331-0.331c-0.993-0.331-1.324-0.662-1.655-0.993c-0.331,0-0.331-0.662-0.662-1.986
	c-0.331-0.662-0.331-1.324-0.331-1.655c-0.331-0.993-0.331-2.648-0.331-4.965c-0.331-1.986-0.331-3.641-0.331-4.634
	c0-0.331,0-0.993,0-2.317l-0.331-1.986c0-1.655,0.662-3.31,1.986-5.296c0.331-0.662,0.662-1.324,0.993-1.655
	c0.331-0.331,0.331-0.662,0.662-0.993c1.324-1.655,2.317-2.648,3.31-2.648c0.331,0,0.662,0.331,0.993,0.993l0.331,0.331h0.331
	c0.331-0.331,0.662-0.331,0.993-0.662c1.655-1.324,2.979-1.986,3.972-1.986h0.331c2.648,0,7.282,0,13.571,0
	c0.662,0,1.324,0,2.648-0.331c0.993-0.331,1.324-0.331,1.986-0.331h0.331c1.324,0.662,2.979,0.993,4.303,0.993h9.93
	c0.331,0,0.993,0,1.324,0c1.655,0.331,3.31,0.331,4.634,0.331c0.331,0,0.331,0,0.662,0.331c1.986,0.662,3.31,3.641,3.31,8.275
	c0.662,3.641,0.993,6.951,0.662,10.923c-0.331,3.31-1.324,5.627-2.979,6.951c-2.648,1.986-4.965,2.979-6.951,2.979
	c-0.662,0-1.324,0-2.317,0c-0.331,0-1.324,0-3.31,0c-1.655,0.331-2.648,0.331-3.31,0.331c-0.331,0.331-0.331,1.324-0.662,3.31
	c-0.331,0.993-0.331,1.655-0.331,1.986c0,0.662-0.331,2.317-1.324,4.634c-0.331,1.655-0.662,2.317-0.662,2.648
	c0.662,0.662,1.324,0.662,2.317,0.331h0.331c2.648,0.331,5.958,0.331,10.261,0c3.31-0.331,6.289-0.331,8.606-0.331
	c0.331,0,0.993,0,2.317,0c1.324-0.331,2.317-0.331,2.979-0.331c0.993,0,1.655,0,2.648,0c2.979,0,4.303,0.662,3.641,2.317
	c-0.993,0.662-1.986,1.655-3.641,2.979c-1.324,1.655-2.648,2.648-3.31,2.979c-1.324,0.662-3.31,0.993-5.296,0.993h-0.331
	C259.725,241.057,255.753,240.726,252.112,240.726z M208.751,228.479c0.331-0.993,0.662-2.317,1.655-3.972l0.331-0.331
	c0.331-0.662,0.662-0.993,1.324-1.655c0.331,0,0.331,0,0.662,0c1.986-0.331,2.648,0.993,2.648,3.972l0.331,0.331
	c0.331,0,0.993,0,2.317,0c0.331,0,0.662,0,0.993,0c0.331,0,0.993,0,1.324,0c1.655,0,2.648,0.331,2.648,0.993
	c0,0.331,0,0.662-0.331,0.662l-0.331,0.331c-1.324,1.324-4.303,1.986-8.606,2.648C210.075,231.789,208.751,230.796,208.751,228.479z
	 M216.033,211.929c0.331,0.662,0.662,0.993,1.324,0.993c4.965,0.331,9.268,0.331,13.24,0c1.986,0,2.979-0.662,2.979-1.986
	s-0.662-1.986-2.317-2.317c-0.993,0-2.317,0-3.972,0c-3.31-0.331-5.958-0.331-7.944,0c-1.324,0-2.317,0.662-3.31,1.655
	C216.033,210.605,216.033,211.267,216.033,211.929z M217.026,201.006c0.331,0.331,0.662,0.662,0.993,0.993
	c6.951,0,11.916-0.331,15.226-0.993c0.331-0.331,0.662-0.662,0.993-1.655c0-1.655-0.993-2.317-2.648-2.317c-0.993,0-2.317,0-3.972,0
	c-0.331,0-0.662,0-0.993,0c-1.324,0-3.31,0.331-5.627,0.662c1.655-0.662,1.324-0.662-0.662,0
	C219.012,199.02,218.019,200.013,217.026,201.006z M235.562,232.12c2.317-0.993,3.972-3.972,4.965-8.937
	c0-1.324,0-1.986-0.331-2.317c-1.655-0.331-4.634-0.331-8.937-0.331h-0.331c-1.324-0.331-2.317,0-2.317,0.993
	c0,0.331,0,0.993,0.331,1.986v0.993C230.928,229.141,233.245,231.789,235.562,232.12z M242.844,213.253c0.993,0,1.986,0,3.31,0.331
	c0.993,0,1.986,0,2.648,0c1.986,0,3.641-0.331,5.627-0.993c0.331,0,0.993,0,1.324-0.331c0.662-0.662,0.993-1.655,0.993-2.979v-0.331
	c-1.986,0-3.641,0-5.627,0c-0.662,0-1.986,0-3.641-0.331h-1.324h-1.986c-0.993,0.331-1.655,0.331-1.986,0.331
	c-0.331,0-0.331,0-0.662,0.331c-0.331,0-0.662,0-0.662,0.331s0,0.662,0,0.662c-0.331,0.662-0.331,1.324,0,1.655
	C241.52,212.26,242.182,212.922,242.844,213.253z M255.422,201.999c0.993,0,1.324-0.331,1.324-0.993v-0.331
	c0-1.655-0.993-2.648-2.648-2.648c-2.648-0.662-5.958-0.662-10.592-0.662h-0.662c-0.993,0-1.655,0.993-1.986,2.648
	c0,0.993,0.993,1.655,2.979,1.655c0.662,0,1.324,0,2.648,0.331C250.457,201.668,253.436,201.999,255.422,201.999z M250.788,227.486
	c-1.324,0-2.317,0.331-3.31,0.993l-0.331-0.331c0.993-0.993,2.317-1.655,4.303-1.986c1.324-0.331,2.648-0.662,3.31-0.993
	c0.331,0,0.331-0.331,0.331-0.993c0.331-1.655,1.324-2.317,2.979-2.317c2.317,0.331,3.641,1.655,3.641,4.634
	c0,0.662-0.662,1.655-1.655,2.648c-0.331,0.331-0.331,0.662-0.662,0.662c-0.331,0.331-1.324,0.331-2.979,0.331
	c-1.986,0-3.31-0.331-3.641-0.993c-0.331-0.331-0.331-0.662-0.662-0.662C251.781,227.486,251.119,227.486,250.788,227.486z"/>
<path d="M320.959,238.078c-0.331-0.331-0.662-0.662-0.993-0.662l-0.331-0.331c-0.993-1.324-1.655-2.979-1.986-5.627
	c0-0.662,0.331-1.324,1.324-1.986c0.331-0.331,0.331-0.331,0.662-0.331c0.993-0.331,1.655-0.993,1.986-0.993h0.662
	c0.331,0,0.331,0,0.331,0.331l0.331,0.331c0.331,0.331,0.993,0.331,1.655,0.331c6.62-0.331,10.261-2.979,10.261-7.613
	c0.331-1.986,0-3.31-0.331-3.641c-0.331-0.662-1.324-0.662-2.648,0h-1.324c-1.324,0.331-2.317,0.331-2.648,0.331
	c-0.662-0.331-1.324-0.662-2.648-0.662c-2.979,0-4.634-1.324-4.965-3.641c0-1.324,0-2.648,0-3.972c0-0.993,0-1.655-0.331-1.986
	c-0.331,0-0.662,0-0.993,0.331c-0.993,0.331-1.324,0.331-1.986,0.331l0,0l-2.979-0.993c-3.31-3.641-6.951-5.958-10.923-7.944
	c-0.331-0.662-0.662-0.662-1.655-0.331h-0.662c-0.993,0-1.986,0.331-3.31,0.662c-0.331,0.331-0.662,0.331-0.993,0.331l-1.324,0.331
	c-0.993,0.662-1.655,0.662-1.986,0.662c-1.986,0.662-3.972,2.317-5.958,4.965h0.662l7.282-0.993c0.662,0.331,1.655,0.331,3.31,0
	c0.993-0.331,1.324-0.331,1.986-0.331c3.31,0,6.62,0.331,9.93,0.662c1.986,0.662,3.31,2.317,3.641,5.627c0,0.331,0,0.662,0,0.662
	c0,0.662,0,1.324,0.331,2.317c0,0.993,0,1.655,0,2.317c0,1.655-0.331,2.979-0.993,4.634l-1.324,0.993
	c-0.662,0.662-0.993,1.324-1.324,1.655s-0.662,0.662-0.993,0.662l-3.31,0.993c-0.331,0-0.993,0-2.317,0
	c-1.324,0.331-2.317,0.331-2.979,0.331h-0.331l-3.972-1.655c-1.324-1.324-2.648-2.317-3.972-2.979v-0.331
	c0.331-1.324,0.993-1.986,2.317-2.648c0.331,0,0.993,0,1.986,0c0.993,0.331,1.324,0.331,1.986,0.331c0.993,0,1.986,0,3.641-0.331
	c1.655,0,2.979,0,3.31,0c1.655-0.993,2.317-2.317,2.317-3.972c0-0.662,0-0.993-0.331-0.993c-0.331-0.662-2.979-0.993-7.944-1.655
	c-6.62-0.662-9.93,3.31-9.268,11.916c-0.993,4.634,1.986,6.951,8.606,6.62c2.648,0,5.296-0.331,7.944-0.662
	c1.986-1.324,3.31-2.648,4.303-4.634c0.331,0,0.331-0.331,0.662-0.662c0-0.331,0.331-0.662,0.662-0.662
	c0.331-0.331,0.662,0,0.993,0.662l0.993,2.317c2.317,3.641,1.655,6.62-2.317,9.268c-1.986,1.324-4.303,1.986-6.951,2.317
	c-0.662,0-1.655,0-3.31,0c-4.303,0.331-7.613,0-9.93-0.331c-1.324,0-2.317,0-2.979-0.331c-1.324,0-2.317-0.331-2.979-0.993
	c-1.655-1.986-2.648-4.965-2.979-8.937c0-0.993,0-2.648,0.331-4.634c0.331-1.986,0.331-3.31,0.331-3.972
	c0-2.317,0-3.641-0.331-4.634c0-0.331,0-0.662-0.331-0.662c-0.331-0.331-0.331-1.324-0.331-2.317
	c-0.331-0.662-0.331-1.324-0.331-1.986h-0.331c-1.986,1.324-3.641,2.317-5.296,2.979c-0.331,0-0.662,0-0.993,0
	c-0.331,0-0.993,0-1.324,0c-0.331,0-0.662-0.993-0.662-2.648c2.979-5.627,8.937-10.923,17.543-15.888
	c2.317-1.655,4.965-2.648,7.944-2.648c0.331,0,0.331,0,0.662,0c0.331,0.331,0.993,0.662,1.324,0.662
	c0.993,0.331,1.324,0.331,1.655,0.331c1.655,1.324,3.31,1.986,4.303,2.648c2.979,0.993,5.296,1.986,7.282,3.31
	c0.662,0.662,1.655,1.986,2.979,3.31c0.993,1.655,1.986,2.648,2.648,3.31l0.993-3.31v-4.965c-0.331-0.331-0.331-0.662-0.331-0.662
	c0.331-0.662,0.662-1.324,1.655-1.655c1.986,0.662,2.979,1.655,3.31,3.641c0,1.655,0,2.979,0,3.972c0,0.662,0,0.993,0,1.986
	c-0.331,1.324-0.331,2.317,0,2.979c0.993,1.986,1.986,2.979,3.31,2.979c2.979-0.331,4.965-1.655,5.627-3.641
	c0-0.993,0-2.648,0-4.634c0.331-3.641,0.331-6.62,0-8.275c0.331-1.655,0.993-2.317,1.986-2.648c1.655,0.331,2.979,1.324,3.641,3.31
	c0,0.993,0,1.986,0.331,2.979c0,4.634-0.331,8.937-0.662,13.571c0,0.662,0,1.986,0.331,3.972l0.331,0.331
	c-0.331,0.993,0,2.648,0.331,4.965c0.331,1.655,0.662,2.979,0.662,3.972c0,0.662-0.331,1.655-0.662,2.317
	c-0.331,0.662-0.331,0.993-0.331,0.993c-2.979,6.951-7.613,10.923-13.902,11.585c-0.331,0-0.662,0-0.993,0
	c-1.324,0-2.648-0.331-4.303-0.993C321.621,238.078,321.29,238.078,320.959,238.078z"/>
<path d="M360.679,236.092c0-0.993,1.655-1.324,5.296-1.324c0.662,0,1.324,0,1.986,0h0.331c0.331,0,0.662,0,0.993,0h0.331h0.331
	c3.972-0.331,5.627-1.324,5.627-2.979c0-0.331-0.331-0.662-0.662-0.662c-0.331-0.331-0.331-0.331-0.662-0.331
	c-2.317-0.662-4.634-0.993-6.951-0.662c-1.324,0-2.648,0-3.31,0c-0.331,0-0.662,0-1.324,0c-0.662,0.331-1.324,0.331-1.986,0.331
	s-0.993-0.993-0.993-2.648c0.331-1.655,0.662-2.648,0.993-2.648c1.324,0,2.979,0,4.965,0c0.331,0,0.662,0,0.993,0
	c2.317,0,3.641,0,3.972-0.331c0.662,0,1.324,0,1.324-0.331c0.331,0,0.662,0,0.993-0.331v-0.331
	c-0.331-0.331-0.662-0.662-0.993-0.993c-0.662-0.662-1.655-1.324-2.979-2.317c-0.662-0.331-1.324-0.993-1.986-1.324
	c-0.331,0.331-1.324,0.331-2.317,0.331c-0.662,0.331-1.324,0.993-1.986,1.655c-0.331,0.662-0.662,1.324-1.324,1.324
	c-0.331,0-0.662,0.331-1.324,0.662c-0.662,0.662-1.655,1.324-2.317,1.324c-3.31,2.317-6.289,2.648-8.937,0.331v-0.662l-0.331-0.331
	v-0.331l1.324-0.993l9.599-7.944h0.331c0.331-0.331,0.662-0.331,0.993-0.662l0.662-0.662c1.324-0.331,2.648-1.324,3.972-2.648
	c0.662-0.331,1.324-0.662,1.324-0.993c-0.662-0.331-1.655-0.331-2.317-0.331c-0.662,0-1.655,0-2.648,0.331
	c-1.324,0.331-2.317,0.662-2.979,0.662c-1.986,0-3.641-0.331-5.627-0.993c-0.662-0.331-0.993-0.662-0.993-0.993
	c0-0.331,0.331-0.662,0.662-0.993c0.331-0.331,0.331-0.331,0.331-0.662c1.986-1.655,4.303-2.648,6.62-2.648
	c0.662,0,1.655,0,2.648,0.331c1.324,0.331,2.648,0.662,3.31,0.662c2.648,0,3.972-0.993,3.972-2.979c0-1.655-0.993-2.648-2.979-2.648
	c-0.331,0-0.993,0-2.317,0c-1.986-0.331-2.979-0.331-3.31-0.331c-0.662,0-1.655,0-2.317,0c-0.331,0-0.331,0-0.662-0.331
	c-1.655-0.331-2.317-0.993-2.317-1.655c0.331-1.655,1.655-2.648,4.965-2.979c0.993,0,1.986,0.331,2.648,0.662h4.634
	c1.986-0.331,2.979-1.324,2.979-2.979c0.331-0.331,0.331-0.993,0.331-2.317c0.662-1.655,1.655-2.648,2.648-2.979
	c0.662,0,1.324,0.993,1.655,2.979c0,0.662,0,1.324,0,1.324c0,0.993,0.331,1.986,0.993,2.979c2.317,0.331,4.965,0.331,7.282,0.331
	c1.324,0,2.317,0,2.979,0l0.662-0.331l2.317-3.31c0.331-0.331,0.662-0.331,0.993-0.331c0.662,0.331,1.324,0.993,1.655,2.648
	c0,1.324-0.662,3.641-2.317,6.289c-0.331,0.662-0.662,1.324-0.993,1.324c-0.331,0.331-0.662,0.662-0.993,0.993
	c-0.993,0.662-1.655,1.324-1.986,2.317l0.662,0.331c0.662,0,1.324,0,2.317,0.331c0.993,0,1.655,0,1.986,0s0.662,0,0.993,0
	c0.662-1.324,1.655-2.317,3.31-2.979c2.648-1.324,3.972-3.31,3.972-5.627c0-0.331,0-0.993-0.331-1.324s-0.331-0.993-0.331-0.993
	c0.331-2.317,1.324-3.31,2.979-3.31c2.317,0.331,3.31,2.648,3.641,6.951c0,0.662,0,1.324-0.331,2.317c0,0.331,0,0.662-0.331,0.993
	c0,0.331,0,0.662-0.331,0.662c0,0.331,1.655,0.662,4.634,0.662c7.282-0.331,10.923,0.993,10.923,3.31s-0.662,3.31-2.317,3.31
	c-0.662,0.331-1.986,0.331-3.641,0.662c-0.993,0.331-1.655,0.331-1.986,0.331v0.331c0,0.331,0,0.662-0.331,0.993
	c0,3.972-0.662,9.268-2.317,15.888v0.331c0.331,1.655,0.993,2.979,1.986,3.641c0.331,0,0.993,0,1.655,0.331
	c0.662,0,0.993,0,1.324,0.331c1.986,0,3.641-0.993,4.965-2.979l0.331,0.662c0,0.993,0,1.655,0.331,1.655l0.331,0.331
	c0.662,0.331,0.993,1.324,0.993,2.317c0,1.324-1.324,2.979-3.641,4.634c-0.331,0.331-0.331,0.331-0.662,0.331
	c-0.993,0.993-2.648,1.324-4.634,1.324c-1.655,0-3.641-0.993-5.958-2.648c-1.324-0.993-2.317-1.655-2.979-1.655
	c-0.662,0.331-1.655,0.662-1.986,0.993c-0.331,0.331-0.662,0.331-1.324,0.662c-2.979,1.655-5.296,2.317-7.282,2.317
	c-0.662,0-0.993,0-1.324-0.331s-0.331-0.331-0.662-0.662c-0.331-0.331-0.662-0.993-0.993-1.655
	c-0.331-0.331-0.331-0.993-0.662-0.993v-2.648c0-0.993,0.662-1.655,1.655-1.655c1.655,0,4.303-0.993,6.951-2.979
	c0.331,0,0.331-0.331,0.331-0.662v-0.331c-0.662-0.993-1.324-2.648-1.986-4.965v-0.662c-0.331-0.662-0.662-1.655-0.993-2.979
	c-0.662-1.324-0.993-2.648-0.993-3.641c0-2.317,0.662-3.31,2.317-3.31c0.662,0,1.655,0.331,1.986,1.324
	c0.331,0.331,0.331,0.331,0.662,0.662c0.331,0.331,0.331,0.993,0.331,0.993c0,0.331,0,0.662,0,1.324
	c0.331,4.303,1.324,6.62,2.979,6.951c0.993-0.331,1.986-1.655,2.317-4.634c0.331-1.324,0.331-3.31,0.662-5.627
	c0-0.331,0-0.662,0-0.993c0.331-1.986-0.662-2.648-2.648-2.648c-0.331,0-0.331,0-0.662,0c-0.662,0.331-2.648,0.331-5.627,0.662
	c-1.324,0-2.648-0.331-3.972-1.324c-0.331,0-0.993,0-1.986,0c-0.993,0.331-1.655,0.331-1.986,0.331
	c-1.324,0.331-3.641,0.662-6.951,0.331c-1.986,0.331-4.303,0.993-6.289,2.648c-1.655,0.331-2.648,0.662-2.648,0.993
	c0.331,0,0.993,0,1.655,0c0.662,0.331,1.324,0.331,1.655,0.331s0.993,0,1.986-0.331h1.986h0.662
	c4.303-0.331,6.289,1.324,5.958,4.303c0,0.331,0,0.993-0.331,1.655c-0.331,0.662-0.331,1.324-0.662,1.655
	c-0.331,0.331-0.331,0.331-0.662,0.662c-0.993,0.993-1.655,1.986-1.655,3.31c0.993,0,1.655,0,2.317,0c0.331,0,0.662,0,1.324-0.331
	c0.331,0,0.662,0,0.993,0c1.324,0,2.648,0.331,3.972,0.993c0,0.331,0.331,0.662,0.662,0.993c0,1.986-0.662,2.979-2.317,3.31h-0.993
	c-2.648-0.331-4.303-0.331-4.634,0c-0.331,0-0.993,0-1.655,0c0,2.317-0.331,4.965-1.324,7.613c-0.993,1.324-2.317,2.317-3.972,2.979
	c-0.331,0.331-0.662,0.331-0.993,0.662c-1.986,0.993-3.641,1.324-5.296,1.324c-4.303-0.331-7.282-0.993-8.937-2.648
	C361.341,239.402,360.679,238.078,360.679,236.092z M373.588,218.218c0.993,1.655,2.317,2.979,3.972,3.641
	c0.662-0.331,1.655-1.655,2.317-3.31C379.877,217.887,377.891,217.556,373.588,218.218z M375.243,201.999
	c0.331,0.993,0.662,1.324,1.324,1.324c0.331,0,0.662-0.331,1.655-0.662c0.662-0.331,1.324-0.662,1.986-1.324
	c0.993-0.662,1.655-1.324,1.655-1.655c0-0.331,0-0.331-0.331-0.331c-0.662,0-1.324,0-1.986,0.331
	c-0.662,0.331-0.993,0.331-1.655,0.331c-0.662,0-0.993,0-1.324,0C375.574,200.344,375.243,201.006,375.243,201.999z"/>
<path d="M434.823,208.619c0-0.662,0.331-1.655,0.993-2.648c0.331-0.993,0.662-1.986,1.324-2.979l0.331-0.662
	c0.331-0.331,0.331-0.331,0.662-0.331c0.662-0.331,0.993-0.662,0.993-1.324c0-0.331,0-0.662-0.331-0.993c-0.331,0-0.662,0-0.993,0
	c-0.662,0-1.655,0-2.648,0c-1.324,0.331-1.986,0.331-2.648,0.331c-3.972,0-5.958-0.993-5.958-2.648c0-0.331,0.331-0.993,0.662-0.993
	c1.655-1.655,3.972-2.648,5.958-2.648c0.331,0,0.993,0,1.986,0.331c0.662,0.331,1.324,0.331,1.986,0.331
	c0.993,0,2.648,0,4.634-0.331c1.986-0.331,3.641-0.331,4.634-0.331c0.331-0.331,0.993-0.331,2.317,0h0.662c0.331,0,0.662,0,1.324,0
	c3.31-0.331,4.965-1.324,4.965-3.31v-0.331v-0.331c-0.331-0.662,0-1.324,0.662-1.655h3.641c0.331,0,0.662,0,1.324,0.331
	c0.662,0,0.993,0,1.324,0.331c0.331,0.331,0.662,1.324,0.993,2.979c0.331,1.324,0.331,1.655,0.662,1.655
	c7.282,0.331,14.564,0.662,22.177,0.662c2.979-0.331,4.303,0.331,4.303,2.317c0,1.655-1.324,2.648-3.972,2.648
	c-1.324,0-2.317,0-3.641,0c-1.324,0.331-2.648,0.331-3.972,0l-0.993,0.331c0.331,0.662,0.993,1.655,1.986,2.648
	c1.655,1.655,2.317,3.31,2.317,4.965c-0.662,1.986-1.655,2.979-2.648,3.641h-0.331c-0.331,0-0.993,0-1.986-0.331h-1.324h-0.662
	c-7.613,0.662-12.909,0.993-16.219,0.662c-0.662,0-1.655,0-2.648-0.331c-1.324,0-1.986,0-2.648,0c-0.993,0-2.648,0-4.965,0.331
	c-2.317,0.331-3.972,0.662-5.296,0.662c-0.331,0-0.662,0-1.324,0c-0.331,0-0.993,0-1.655,0
	C436.478,210.936,434.823,209.943,434.823,208.619z M428.203,235.761v-0.662c0-0.331,0.331-0.331,0.662-0.331
	c2.648-0.993,4.303-2.317,4.965-3.972c-0.331-6.289,0.662-10.592,1.986-12.909c2.317-2.317,3.641-3.641,3.972-3.641
	c0.331,0,0.662,0.331,0.993,0.662l0.331,0.331h0.331c1.655-0.331,3.972-0.662,6.62-0.662c0.331,0,0.662,0,1.655-0.331
	c0.662,0,1.655,0,1.986,0c7.944-0.331,14.895-0.331,20.191,0.331c2.317,0,4.303,0.331,5.958,0.993
	c0.331,0.331,0.662,0.662,1.655,0.993c0.662,0.662,1.324,1.324,1.324,1.324c1.324,1.324,2.317,3.31,2.317,6.289
	c0,0.331,0,0.662,0.331,0.993c0.331,0.993,0.662,1.655,0.662,2.317c0,0.331,0,0.662,0,0.993c-0.331,1.324-0.331,1.986,0,2.648
	c0,0.662,0,1.655,0.331,2.648c0,1.324,0,2.317,0,2.979c0,1.655-0.331,3.31-0.662,4.634c-0.662,0.993-1.986,1.324-3.641,1.324
	c-0.662,0-0.993,0-1.324,0h-0.331c-0.662-0.331-1.324-0.993-1.324-1.655c0-0.662,0-1.324,0-2.317c0-0.662,0-1.324,0-1.324
	c0-0.331-0.331-0.331-0.662-0.331c-8.937-0.331-16.219-0.331-20.853,0c-1.324,0-2.979,0-5.296-0.331c-1.986,0-3.641,0-4.634,0
	c-2.317,0-4.303,0.662-5.958,1.655c-0.331,0.331-0.993,0.662-1.655,1.324c-0.662,0.993-1.324,1.655-1.655,1.655
	c-1.986,1.324-3.641,1.324-5.296,0.662C429.527,241.057,428.534,239.071,428.203,235.761z M440.45,223.514L440.45,223.514
	c0.993,0,1.986,0,2.317,0s0.662,0,1.324,0c2.317,0.331,4.303,0,5.296-0.662c0.662,0.331,2.317,0.331,4.634,0.331
	c0.993,0,2.317,0,4.303-0.331c1.986,0,2.979,0,3.972,0c0.331,0,1.324,0,2.979,0c1.986,0.331,3.31,0.331,3.641,0.331
	c1.655,0,3.31,0,5.296,0c0.331,0,0.662,0,0.993-0.331l0.993-0.331v-0.331c-0.331-1.324-1.986-2.317-4.303-2.648
	c-0.662-0.331-1.324-0.331-1.655-0.331l-1.655-0.331c-1.324,0-1.986,0-1.986,0h-0.331c-0.331,0-0.662,0-0.993,0
	c-0.331,0.331-0.662,0.331-0.993,0.331c-2.317,0.331-4.303,0.331-5.958,0.331c-1.986,0-3.972,0-5.627,0c-0.993,0-1.986,0-2.648,0
	C443.76,220.204,440.781,221.528,440.45,223.514z M440.45,230.465c0,0.662,0.662,0.993,1.655,0.993c1.655,0,3.972,0,6.951-0.331
	c3.31-0.331,5.627-0.331,6.951-0.331c0.662,0,1.986,0,4.634,0c6.62,0.331,11.585,0.662,14.233,0.331
	c1.324,0,1.986-0.331,1.986-0.993c0.331-1.324-0.993-2.317-4.303-2.648c-0.662,0-2.648,0-5.296-0.331c-2.317,0-4.303,0-5.296,0
	c-2.317,0-5.958,0-11.254,0.331c-2.317,0.331-3.972,0.331-4.303,0.331C442.767,228.479,440.781,229.141,440.45,230.465z
	 M445.746,203.654c1.324,0,2.648,0,3.972,0c0.331,0,0.662,0,1.655,0l1.324,0.331c1.655,0,2.648,0,2.648-0.331
	c4.965,0.331,9.599,0.662,14.564,0.662c0.331,0,0.331,0,0.662-0.331c0.662-0.331,1.324-0.662,1.324-0.993
	c0-0.662-0.331-1.324-0.662-1.324c-1.655-1.324-2.979-2.317-4.634-2.317c-0.331,0-0.662,0-1.324,0c-1.986,0-3.972,0.331-5.627,0.662
	c-0.331,0-0.662,0-0.993,0.331h-0.662l-0.662-0.331c-0.331,0-0.331,0-0.662,0h-0.331c-0.331,0.331-0.331,0.331-0.662,0.331
	c-0.331-0.331-0.662-0.331-0.993-0.331c-1.655-0.331-3.31-0.662-5.296-0.662c-0.331,0-0.993,0-1.655,0
	c-0.331,0.331-0.662,0.331-0.993,0.662c-1.324,0.993-1.655,1.986-1.655,3.31L445.746,203.654z"/>
<path fill="#E60012" d="M91.577,218.218c17.874-5.296,42.368-13.24,36.41-25.487c-6.289-12.247-19.86-2.317-23.832,0.662
	c-3.972,2.979-8.275,6.62-15.226,10.261c-4.965,1.324-5.958-3.31-3.641-5.958s23.17-20.853,24.825-22.177
	c1.655-1.324,8.937-7.613,1.986-14.233c-6.951-6.62-11.916-0.993-12.578-0.331c-0.662,0.993-2.317,2.648-9.599,15.226
	c-10.592,19.198-15.557,15.888-15.557,15.888s-6.289-1.986-0.662-10.261c16.881-22.839,19.529-34.424,9.599-37.403
	c-9.93-2.979-11.916,6.62-13.902,16.55c-4.634,21.846-6.62,26.811-11.254,26.48s-5.627-2.979-4.965-7.613s6.62-20.853-3.31-21.515
	c-9.93-0.662-14.895,6.951-16.881,27.804c-0.993,15.888-7.944,20.853-11.254,20.853c-5.958,0-6.289-5.296-6.289-5.296
	c-3.641,30.783,8.606,37.072,16.219,36.741c7.613-0.331,11.916-2.648,14.564-8.606c2.648-5.627,0.662-9.599-0.331-11.585
	c-0.662-1.986-2.648-3.972,0-5.958c2.648-1.655,4.303,1.655,4.303,1.655s1.655,3.641,4.303,2.648
	c2.648-0.993,2.979-3.641,2.979-5.296s1.324-7.613,4.965-6.951c3.641,0.993-0.662,5.627-1.324,6.62
	c-0.662,0.993-3.31,3.641-0.331,6.289c2.317,1.986,5.296-2.979,5.296-2.979s3.972-6.62,7.282-3.972
	c2.648,2.317-4.965,7.613-4.965,7.613s-1.655,0.993-2.317,1.324c-0.662,0.331-2.317,1.655-0.662,3.31
	c1.324,0.993,3.972-0.993,3.972-0.993s5.296-2.979,6.62,0.662s-6.62,3.31-6.951,3.31s-4.965-0.331-3.31,3.31
	c0.993,1.655,4.634,0.993,4.634,0.993s5.296-0.662,4.634,1.986c-0.331,2.317-5.627,0.662-8.606,0.993
	c-2.979,0.331-7.944,0.331-10.592,2.979l0,0c8.275,0,15.888,1.655,20.191,2.979c5.958,1.986,47.333,16.881,49.65-0.993
	s-23.17-10.592-35.748-10.592c-3.972,0-7.613,0.331-7.613-2.648C81.978,221.859,82.971,220.866,91.577,218.218z"/>
<g enable-background="new    ">
	<path d="M141.889,259.924c0-0.662,0.331-0.662,0.662-0.662c0.331,0,0.662,0.331,0.662,0.662c-0.331,2.317-0.662,5.296-1.655,8.606
		v21.184c0,0.331-0.331,0.662-0.662,0.662c-0.331,0-0.662-0.331-0.662-0.662V271.84c-0.331,0.331-0.331,0.662-0.993,1.655
		c-0.331,0.993-0.993,1.986-1.324,2.648c-0.331,0.331-0.662,0.662-0.993,0.331c-0.331-0.331-0.331-0.662-0.331-0.993
		C139.572,270.185,141.227,265.22,141.889,259.924z M166.714,264.889c0.331,0,0.662,0.331,0.662,0.662s-0.331,0.662-0.662,0.662
		h-22.839c-0.331,0-0.662-0.331-0.662-0.662s0.331-0.662,0.662-0.662H166.714z M147.185,279.453h16.55
		c1.655,0,2.317,0.662,2.317,2.317v4.965c0,1.655-0.662,2.648-2.317,2.648h-16.881c-1.324,0-2.317-0.662-2.317-2.317v-4.965
		C144.868,280.446,145.53,279.453,147.185,279.453z M146.192,269.854h18.536c0.331,0,0.662,0.331,0.662,0.662
		s-0.331,0.662-0.662,0.662h-18.867c-0.331,0-0.662-0.331-0.662-0.662C145.53,269.854,145.861,269.854,146.192,269.854z
		 M146.192,274.488h18.867c0.331,0,0.662,0.331,0.662,0.662s-0.331,0.662-0.662,0.662h-18.867c-0.331,0-0.662-0.331-0.662-0.662
		C145.53,274.819,145.861,274.488,146.192,274.488z M164.066,288.39c0.662,0,0.662-0.331,0.662-0.662v-5.958
		c0-0.662-0.331-0.662-0.662-0.993h-17.212c-0.662,0-0.662,0.331-0.662,0.662v5.958c0,0.662,0.331,0.662,0.993,0.662h16.881V288.39z
		 M152.812,259.262c0.331,0.331,0.331,0.662,0.993,0.993c0.662,0.331,1.324,1.324,2.648,2.979c0.331,0.331,0.331,0.662,0,0.993
		c-0.331,0.331-0.662,0.331-0.993,0c-1.324-1.655-2.317-2.979-3.641-3.972c-0.331-0.331-0.331-0.662,0-0.993
		C152.15,258.931,152.481,258.931,152.812,259.262z"/>
	<path d="M182.602,280.446c-0.993,3.31-2.317,6.289-3.972,8.275c-0.331,0.331-0.662,0.331-0.993,0.331
		c-0.331-0.331-0.331-0.662,0-0.993c1.324-1.986,2.648-4.634,3.641-7.613c0.331-0.331,0.331-0.331,0.993-0.331
		C182.602,279.784,182.933,280.115,182.602,280.446z M191.87,259.262c0.331-0.331,0.331-0.331,0.993-0.331
		c0.331,0.331,0.331,0.331,0.331,0.662c-0.662,0.993-0.993,1.986-1.324,2.317h9.93c1.655,0,2.648,0.993,2.648,2.648v11.254
		c0,1.655-0.993,2.317-2.648,2.317h-18.536c-2.317,0-3.31-0.993-3.31-2.648v-11.254c0-1.655,0.993-2.317,2.648-2.317h7.613
		C190.877,261.248,191.208,260.586,191.87,259.262z M182.602,263.234c-0.993,0-1.324,0.662-1.324,1.655v1.986h21.846v-2.317
		c0-0.662-0.331-1.324-1.324-1.324H182.602z M181.609,267.868v3.641h21.846v-3.641H181.609z M181.609,272.833v2.317
		c0,0.993,0.662,1.324,1.655,1.324h18.867c0.993,0,1.324-0.331,1.324-1.324v-2.317H181.609z M187.567,279.784v5.958
		c0,1.655,0.993,2.648,2.979,2.648h4.303c3.31,0.331,4.634-0.993,4.303-4.303c0-0.331,0.331-0.662,0.662-0.662
		c0.662,0,0.662,0.331,0.662,0.662c0.331,4.303-1.324,6.289-5.627,5.958h-4.303c-2.648-0.331-3.972-1.324-4.303-3.641v-6.289
		c0-0.331,0.331-0.662,0.662-0.662C187.567,279.122,187.567,279.453,187.567,279.784z M193.194,279.122
		c1.324,1.986,2.317,4.303,2.648,6.951c0,0.331-0.331,0.662-0.662,0.662c-0.331,0-0.662,0-0.662-0.331
		c-0.662-2.317-1.324-4.634-2.317-6.62c-0.331-0.331,0-0.662,0.331-0.662C192.532,278.791,192.863,278.791,193.194,279.122z
		 M202.462,280.115c1.986,1.986,3.641,4.303,5.296,7.282c0.331,0.331,0,0.662-0.331,0.993c-0.331,0-0.662,0-0.993-0.331
		c-0.993-1.986-2.648-4.634-4.965-7.282c-0.331-0.331-0.331-0.662,0-0.993C201.8,279.784,202.131,279.784,202.462,280.115z"/>
	<path d="M240.527,270.847c0.993,0,1.324,0.331,1.655,0.662c0,0.331-0.331,0.993-1.324,1.655c-1.986,1.655-4.634,2.979-7.613,4.303
		c-0.662,0.331-0.993,0.331-0.993,0.662s0.331,0.331,0.662,0.662c0.331,0.331,0.662,0.662,0.662,0.993h12.909
		c0.331,0,0.662,0.331,0.662,0.662c0,0.331-0.331,0.662-0.662,0.662h-12.247c1.324,5.627,0.331,8.937-2.979,9.599
		c-1.986,0.331-3.972,0-5.958-0.993c-0.331-0.331-0.662-0.331-0.662-0.993c0.331-0.331,0.662-0.662,0.993-0.331
		c3.641,1.324,5.958,1.324,6.951,0c1.324-1.986,1.324-4.634,0-7.282h-15.226c-0.331,0-0.662-0.331-0.662-0.662
		c0-0.331,0.331-0.662,0.662-0.662h14.895c-0.331-0.331-0.331-0.331-0.993-0.662c-0.662-0.662-0.993-0.993-0.993-1.324
		s0.993-0.662,2.979-1.655c2.979-1.324,5.296-2.317,6.62-3.31c0.331-0.331,0-0.331-0.662-0.331h-16.881
		c-0.331,0-0.662-0.331-0.662-0.662s0.331-0.662,0.662-0.662h18.205V270.847z M242.182,259.262c0.331-0.662,0.662-0.662,1.324-0.331
		c0.331,0.331,0.331,0.662,0,1.324c-0.993,2.317-2.317,3.972-3.641,5.958h4.303c1.655,0.331,2.317,0.993,2.317,2.648
		c-0.331,1.986-0.662,3.972-1.324,5.296c-0.331,0.331-0.331,0.331-0.662,0.331c-0.331-0.331-0.331-0.331-0.331-0.993
		c1.324-4.303,1.655-5.958,0-5.958h-24.163c-0.662,0-1.324,0.331-1.324,0.993v5.296c0,0.331-0.331,0.662-0.662,0.662
		c-0.662,0-0.662-0.331-0.662-0.662v-5.627c0-1.324,0.662-1.986,2.317-2.317h18.536
		C239.865,263.565,241.189,261.579,242.182,259.262z M220.998,259.262c1.655,1.655,2.979,3.31,3.641,4.634
		c0.331,0.331,0,0.662-0.331,0.993c-0.331,0-0.662,0-0.993-0.662c-0.993-1.324-2.317-2.979-3.641-4.303
		c-0.331-0.331-0.331-0.662,0-0.993C220.005,258.931,220.336,259.262,220.998,259.262z M230.266,259.262
		c1.655,1.986,2.648,3.641,3.31,4.965c0.331,0.662,0.331,0.993-0.331,0.993c-0.331,0-0.662,0-0.993-0.662
		c-0.993-1.655-1.986-3.31-2.979-4.634c-0.331-0.331-0.331-0.662,0-0.993C229.604,258.6,229.935,258.6,230.266,259.262z"/>
	<path d="M269.654,259.593c-0.331,0.993-0.331,1.655-0.662,2.648h17.212c0.662,0,0.662,0.331,0.662,0.662
		c0,0.662-0.331,0.662-0.662,0.662h-17.874c-1.655,3.972-3.641,7.613-6.289,11.254v15.226c0,0.331-0.331,0.662-0.662,0.662
		c-0.331,0-0.662-0.331-0.662-0.662v-13.24c-1.324,1.655-2.648,3.31-3.972,4.634c-0.331,0.331-0.662,0.331-1.324,0
		c-0.331-0.331,0-0.662,0.331-1.324c5.296-5.627,8.937-11.254,10.592-16.55h-9.93c-0.662,0-0.662-0.331-0.662-0.662
		s0.331-0.662,0.662-0.662h10.592c0-0.331,0.331-0.331,0.331-0.662c0.331-0.993,0.662-1.655,0.662-1.986s0.331-0.331,0.662-0.331
		C269.324,258.931,269.654,259.262,269.654,259.593z M276.274,268.199v6.62h9.599c0.331,0,0.662,0.331,0.662,0.662
		s-0.331,0.662-0.662,0.662h-9.599v11.916h9.93c0.662,0,0.662,0.331,0.993,0.662c0,0.662-0.331,0.662-0.662,0.662h-20.853
		c-0.331,0-0.662-0.331-0.662-0.662c0-0.662,0.331-0.662,0.662-0.662h9.599v-11.916h-9.268c-0.331,0-0.662-0.331-0.662-0.662
		s0.331-0.662,0.662-0.662h9.268v-6.62c0-0.331,0.331-0.662,0.662-0.662C275.943,267.537,276.274,267.868,276.274,268.199z"/>
	<path d="M306.726,282.763c0.662-0.331,0.993-0.331,0.993,0c0.331,0.331,0,0.662-0.662,0.993c-4.634,2.317-8.275,3.641-10.923,4.303
		c-0.662,0.331-0.662,0-0.993-0.331c0-0.331,0-0.662,0.662-0.993C299.113,286.404,302.754,284.749,306.726,282.763z
		 M300.768,259.593c0.331-0.331,0.331-0.662,0.993-0.662c0.331,0.331,0.662,0.331,0.331,0.993c-1.655,4.634-3.31,7.944-4.634,9.93
		c1.655-0.331,3.641-0.331,5.296-0.662c0.993-1.324,1.655-3.31,2.648-5.958c0.331-0.662,0.331-0.662,0.993-0.662
		c0.331,0,0.662,0.331,0.331,0.993c-2.648,6.289-5.627,11.585-8.937,15.557c4.303-0.662,7.282-1.324,8.606-1.655
		c0.331,0,0.662,0,0.662,0.331s0,0.662-0.662,0.993c-3.641,0.662-6.62,1.324-9.599,1.655c-0.662,0-0.993,0-1.324-0.331
		c0-0.331,0-0.662,0.662-1.324c2.648-3.31,4.634-5.958,5.958-8.606c-0.662,0-1.655,0.331-2.648,0.331s-1.986,0.331-2.648,0.331
		s-0.993,0-0.993-0.331s0-0.662,0.331-0.993C298.12,266.875,299.775,263.234,300.768,259.593z M312.022,259.262
		c0-0.662,0.331-0.662,0.662-0.662c0.331,0,0.662,0.331,0.662,0.662c0,0.662,0,1.986,0.331,3.972c0,0.662,0,0.993,0,1.324
		l10.261-1.324c0.662,0,0.993,0,0.993,0.331c0,0.662-0.331,0.662-0.662,0.993l-10.261,1.324c0.331,2.317,0.331,4.303,0.662,5.958
		l10.592-1.324c0.662,0,0.662,0.331,0.993,0.662c0,0.331,0,0.662-0.662,0.662l-10.592,1.324c0.662,2.648,1.324,5.296,2.648,7.613
		c2.648-2.317,4.634-4.634,5.958-6.951c0.331-0.331,0.662-0.662,0.993-0.331s0.331,0.662,0,1.324
		c-1.986,2.648-3.972,4.965-6.62,7.282c2.648,3.641,4.634,5.958,6.289,6.62c0.662,0,1.324-2.648,1.324-8.275
		c0-0.331,0.331-0.662,0.662-0.662c0.331,0,0.662,0.331,0.662,0.662c0,6.62-0.662,9.93-1.986,9.599
		c-1.986-0.331-4.303-2.648-7.613-7.282c-2.979,2.317-6.951,4.303-11.585,6.289c-0.331,0.331-0.662,0-0.993-0.331
		s0-0.662,0.331-0.993c4.634-1.655,8.275-3.972,11.254-6.289c-0.993-2.648-1.986-5.627-2.648-8.275l-7.613,0.993
		c-0.331,0-0.662-0.331-0.993-0.662c0-0.331,0.331-0.662,0.662-0.662l7.613-0.993c-0.331-1.986-0.662-3.972-0.662-5.958
		l-5.296,0.662c-0.662,0-0.662-0.331-0.993-0.662c0-0.331,0.331-0.662,0.662-0.662l5.296-0.662c0-0.331,0-1.324,0-2.317
		C312.353,261.248,312.353,259.924,312.022,259.262z M317.98,259.593c1.655,0.662,2.979,1.324,4.634,2.317
		c0.331,0.331,0.331,0.662,0.331,0.993c-0.331,0.331-0.662,0.331-0.993,0c0,0-0.331,0-0.331-0.331
		c-1.655-0.993-3.31-1.655-4.303-2.317c-0.331-0.331-0.331-0.331-0.331-0.993C317.318,259.262,317.649,259.262,317.98,259.593z"/>
	<path d="M335.854,271.178h2.317c1.324,0,1.986,0.331,1.655,1.655v15.557c0,0.331,0,0.331,0.331,0
		c0.993-0.993,1.655-2.317,2.648-4.303c0.331-0.331,0.662-0.662,0.993-0.662c0.331,0.331,0.662,0.662,0.331,0.993
		c-1.324,2.648-2.317,4.303-3.641,5.296c-0.662,0.331-0.993,0.662-1.324,0.331s-0.662-0.662-0.662-1.324v-15.557
		c0-0.993-0.331-1.324-0.993-1.324h-1.655c-0.662,0-0.662-0.331-0.662-0.662C335.192,271.509,335.523,271.178,335.854,271.178z
		 M337.509,260.255c2.979,2.648,4.634,4.634,5.296,5.958c0.331,0.662,0.331,0.993,0,1.324c-0.331,0.331-0.662,0-0.993-0.331
		c-1.655-2.317-3.641-3.972-5.296-5.958c-0.331-0.331-0.331-0.662,0-0.993C336.847,259.924,337.178,259.924,337.509,260.255z
		 M355.714,271.178c0.662,0,0.662,0.331,0.662,0.662c0,0.331-0.331,0.662-0.662,0.662h-4.965v12.909
		c1.655-0.662,3.641-0.993,5.958-1.655c0.662-0.331,0.993,0,0.993,0.331s0,0.662-0.662,0.993c-2.648,0.993-6.951,1.986-12.909,3.31
		c-0.662,0-0.993,0-0.993-0.662c0-0.331,0-0.662,0.662-0.993c0.662-0.331,1.655-0.331,2.648-0.331
		c1.324-0.331,2.317-0.331,2.979-0.662v-13.24h-4.965c-0.662,0-0.662-0.331-0.662-0.662s0.331-0.662,0.662-0.662L355.714,271.178
		L355.714,271.178z M358.031,259.593c0,1.324,0,3.31,0.331,4.965h6.951c0.331,0,0.662,0.331,0.662,0.662s-0.331,0.662-0.662,0.662
		h-6.951c0.993,12.909,2.979,20.522,6.289,22.508c0.993,0.331,1.324-2.317,1.324-7.944c0-0.662,0.331-0.993,0.662-0.993
		c0.331,0,0.662,0.331,0.662,0.993c0.331,6.62-0.662,9.93-2.317,9.599c-3.972-1.655-6.62-9.93-7.613-24.494h-12.578
		c-0.331,0-0.662-0.331-0.662-0.662c0-0.331,0.331-0.662,0.662-0.662h12.578c0-0.331,0-1.324,0-2.317c0-1.324,0-1.986,0-2.648
		c0-0.662,0.331-0.662,0.662-0.662C357.7,258.931,358.031,259.262,358.031,259.593z M361.341,259.262
		c0.662,0.662,1.986,1.655,3.641,3.31c0.331,0.331,0.331,0.662,0,1.324c-0.331,0.331-0.662,0.331-0.993,0
		c-1.324-1.324-2.317-2.648-3.641-3.31c-0.331-0.331-0.331-0.662,0-0.993C360.679,259.262,361.01,259.262,361.341,259.262z"/>
	<path d="M375.905,274.488h12.909c0.331,0,0.662,0.331,0.662,0.662s-0.331,0.662-0.662,0.662h-5.296v3.641h4.634
		c0.331,0,0.662,0.331,0.662,0.662s-0.331,0.662-0.662,0.662h-4.634v5.958c1.655,0.993,4.303,1.655,7.944,1.655h13.902
		c0.331,0,0.662,0.331,0.662,0.662s-0.331,0.662-0.662,0.662h-14.233c-5.958,0-10.261-1.986-12.578-5.958
		c-0.662,2.648-1.324,4.303-1.986,5.296c-0.331,0.662-0.662,0.662-0.993,0.662c-0.331-0.331-0.662-0.662-0.331-1.324
		c1.655-2.648,2.317-6.289,2.648-10.923c0-0.662,0.331-0.662,0.993-0.662c0.331,0,0.662,0.331,0.662,0.993
		c0,1.324-0.331,2.648-0.662,4.303c0.993,1.324,1.986,2.648,3.641,4.303v-10.592h-5.958c-0.331,0-0.662-0.331-0.662-0.662
		C375.243,274.819,375.574,274.488,375.905,274.488z M378.884,259.262h6.62c1.655,0,2.317,0.662,2.317,2.317v8.275
		c0,1.324-0.662,2.317-2.317,2.317h-6.62c-1.324,0-2.317-0.662-2.317-2.317v-8.275C376.567,259.924,377.229,259.262,378.884,259.262
		z M378.884,260.586c-0.662,0-0.993,0.331-0.993,0.993v3.31h8.275v-3.31c0-0.662-0.331-0.993-0.993-0.993H378.884z M377.891,266.213
		v3.641c0,0.662,0.331,0.993,0.993,0.993h6.289c0.662,0,0.993-0.331,0.993-0.993v-3.641H377.891z M398.082,269.192v2.317
		c0,2.317-0.331,4.965-0.662,7.613c0.331,0.331,0.662,0.331,0.993,0.662c3.31,2.648,5.627,4.634,6.951,5.958
		c0.331,0.331,0.331,0.662,0.331,0.993c-0.331,0.331-0.662,0.331-0.993,0c-2.648-2.648-5.296-4.634-7.282-6.289
		c-1.324,2.979-3.641,5.296-7.282,6.951c-0.662,0.331-0.993,0.331-1.324,0c-0.331-0.331,0-0.662,0.662-0.993
		c2.979-1.324,4.965-3.31,5.958-5.296c0.993-1.655,1.655-4.965,1.324-9.599v-2.317c0-0.662,0.331-0.662,0.662-0.662
		C398.082,268.53,398.082,268.861,398.082,269.192z M405.695,259.262c0.331,0,0.662,0.331,0.662,0.662s-0.331,0.662-0.662,0.662
		h-7.613l-0.662,3.972h4.634c1.655,0,2.317,0.662,2.317,2.317v14.895c0,0.662-0.331,0.662-0.662,0.993
		c-0.662,0-0.662-0.331-0.662-0.993v-14.895c0-0.662-0.331-0.662-0.993-0.993h-9.599c-0.662,0-0.993,0.331-0.993,0.993v14.564
		c0,0.662-0.331,0.662-0.662,0.993c-0.331,0-0.662-0.331-0.662-0.993v-14.564c0-1.655,0.662-2.317,2.317-2.317h3.31l0.662-3.972
		h-5.958c-0.662,0-0.662-0.331-0.662-0.662s0.331-0.662,0.662-0.662H405.695z"/>
	<path d="M417.611,260.917h26.149c0.331,0,0.662,0.331,0.662,0.662s-0.331,0.662-0.662,0.662h-12.247v16.881h13.902
		c0.331,0,0.662,0.331,0.662,0.662s-0.331,0.662-0.662,0.662h-13.902v9.599c0,0.662-0.331,0.993-0.662,0.993
		c-0.662,0-0.662-0.331-0.662-0.993v-9.599h-14.233c-0.331,0-0.662-0.331-0.662-0.662s0.331-0.662,0.662-0.662h14.233v-16.881
		h-12.578c-0.331,0-0.662-0.331-0.662-0.662C416.949,260.917,417.28,260.917,417.611,260.917z M420.921,263.896
		c1.986,3.641,3.641,7.944,4.634,12.909c0,0.662,0,0.993-0.662,1.324c-0.331,0-0.662,0-0.993-0.662
		c-1.324-4.634-2.648-8.937-4.634-12.578c-0.331-0.331-0.331-0.662,0.331-0.993C420.259,263.565,420.59,263.565,420.921,263.896z
		 M440.781,264.558c0-0.331,0.331-0.662,0.662-0.662s0.662,0.331,0.662,0.662c-1.324,4.965-2.979,8.937-5.296,12.909
		c-0.331,0.331-0.662,0.662-0.993,0.331c-0.331-0.331-0.331-0.662,0-1.324C437.802,272.833,439.457,268.861,440.781,264.558z"/>
	<path d="M469.578,260.255c-2.648,3.972-6.289,7.613-11.254,10.923c-0.331,0.331-0.331,0.331,0,0.331c0,0,0,0,0.331,0
		c8.937,0,16.881-0.331,24.163-0.662c-1.986-2.648-4.634-5.296-7.613-7.944c-0.331-0.331-0.331-0.662,0-0.993
		c0.331-0.331,0.662-0.331,0.993,0c3.31,2.648,6.62,5.958,9.93,10.592c0.331,0.331,0.331,0.662,0,1.324
		c-0.331,0.331-0.662,0.331-0.993-0.331c-0.331-0.662-0.662-1.324-0.993-1.655c-6.62,0.662-15.226,0.662-26.149,0.662
		c-0.662,0-0.993-0.331-1.324-0.662c0-0.331,0.331-0.662,0.662-1.324c5.296-3.641,8.937-7.613,11.585-11.254
		c0.331-0.331,0.662-0.662,0.993-0.331C469.909,259.262,469.909,259.593,469.578,260.255z M461.634,275.15h18.867
		c2.317,0,3.31,0.993,3.31,2.979v8.275c0,1.986-0.993,2.979-2.979,2.979h-19.198c-2.317,0-3.31-0.662-3.31-2.648v-8.275
		C457.993,276.474,459.317,275.481,461.634,275.15z M461.634,276.805c-1.324,0-1.986,0.662-1.986,1.986v7.944
		c0,0.993,0.662,1.324,1.655,1.324h19.529c0.993,0,1.655-0.331,1.655-1.324v-7.944c0-1.324-0.662-1.655-1.655-1.655h-19.198V276.805
		z"/>
</g>
<line fill="none" stroke="#E60012" stroke-miterlimit="10" x1="14.785" y1="274.488" x2="121.698" y2="274.488"/>
</svg>
