<svg xmlns="http://www.w3.org/2000/svg" viewBox="0 0 294.2 84.26"><defs><style>.cls-1{fill:#16a1ff;}</style></defs><title>Asset 1</title><g id="Layer_2" data-name="Layer 2"><g id="图层_1" data-name="图层 1"><g id="Layer0_1_MEMBER_0_FILL" data-name="Layer0 1 MEMBER 0 FILL"><path class="cls-1" d="M202.33,67.17h-9.81q.53,4.22.66,7.2.26,5.34.22,6.4a9.2,9.2,0,0,1-1.8,0,14.49,14.49,0,0,1-2.24-.47q.22,1,.31,1.62.18,1.12.22,1.56a29.37,29.37,0,0,0,4.4.35,14.35,14.35,0,0,0,7-1.74q0-3.36.35-7.73.53-5.19.75-7.2M168.06,75q-1.58-6.08-1.94-7.76h-8.58q-.92,3.63-2.2,7.64-2.16,6-3.12,8.68h4.14l.79-2.07a8.22,8.22,0,0,1,.66,1.09l.75,1.3a16,16,0,0,1,1.94-1.09q1.36-.53,1.67-.62l.48,1.39,7.83,0q-1.58-5.37-2.42-8.53m-9.42,3.33,1.1-2q.7,1.27,1.06,1.95.57,1.27.79,1.83-1.1.21-2,.3-1.5.18-1.94.18a21.19,21.19,0,0,1,1-2.21M171.58,67.2q.31,3.3.4,8.17.22,6,.31,8.15h4.58l.35-5.64,4.84,2.6,5.54,3.25q.4-5.13.7-9,.57-5.37.84-7.5h-5.32q.09,1.09.13,1.71t0,2l-5.19-3.72h-7.17m-33.44.06q.31,5.16.4,8.09.09,5.75.09,8.23l12.89,0a7.29,7.29,0,0,1,.4-1.62q.4-1.18.57-1.62a11.42,11.42,0,0,1-1.58.24q-2.77.21-4.14.24L148,67.25h-9.9M281.26,67q-.92,3.63-2.24,7.64-2.11,6-3.08,8.68h4.14l.79-2.07q.44.71.66,1.09l.75,1.3a16,16,0,0,1,1.94-1.09q1.36-.53,1.67-.62l.48,1.39,7.83,0q-1.58-5.34-2.42-8.53-1.58-6.08-1.94-7.76h-8.58m2.2,9.06q.7,1.27,1.06,1.95.57,1.27.79,1.83-1.1.21-2,.3-1.5.18-2,.18.62-1.42,1-2.21.75-1.39,1.14-2m-30.36-9q.35,4.75.44,8.09,0,5.81.09,8.23h5.15l.31-5,5.19,5.4,5.28-5.43,0,5,5.15,0q.26-4.54.57-8.17.66-5.9.88-8.15l-7.48,0a24.66,24.66,0,0,1-1.58,2.42q-1.72,2.27-2.33,3a32.87,32.87,0,0,1-2.07-2.89q-1-1.74-1.36-2.51h-8.18M246,76.43q.22,1.51.31,2.18l.18,2.12a6.78,6.78,0,0,1-3.3-.71,2.61,2.61,0,0,1-1.58-2.57,3.45,3.45,0,0,1,2.11-2.89,8.35,8.35,0,0,1,4-1,11.88,11.88,0,0,1,2.68.24l-.57-6.67a38.64,38.64,0,0,0-4.36-.27,16,16,0,0,0-8.8,2.18,7.7,7.7,0,0,0-3.78,6.43A6.72,6.72,0,0,0,236.69,82a18.06,18.06,0,0,0,8.8,1.86,26.7,26.7,0,0,0,5.59-.44q.18-2.07.44-3.57.4-2.54.48-3.42l-6,0m-33.39-.62.84-8.68-9.9,0,.4,16.32,8,0q.4-4.84.66-7.64m2-8.68q.26,3.3.4,8.17.18,6,.26,8.15h4.58l.35-5.64,4.84,2.6q3.74,2.15,5.54,3.22.4-5.13.75-9,.53-5.37.79-7.5l-5.28,0q.09,1.09.09,1.71t0,2l-5.15-3.72Z"/></g><g id="Layer0_1_MEMBER_1_FILL" data-name="Layer0 1 MEMBER 1 FILL"><path class="cls-1" d="M137,41.14q-1.59-.15-3.1-.21A37.45,37.45,0,0,0,119.32,43a2.12,2.12,0,0,0-.91.35,24.19,24.19,0,0,0-5.78,3.36,26.41,26.41,0,0,0-4.4-11.45,46,46,0,0,0-8.88-9.68,2.93,2.93,0,0,0-1.92-.71,2.82,2.82,0,0,0-1.89.71,2.77,2.77,0,0,0-1,1.74,65.68,65.68,0,0,0-.89,6.82,38.9,38.9,0,0,0,.47,11.16,1.52,1.52,0,0,0,0,.3q2.12,10,10.3,13.34a12.33,12.33,0,0,1-1.09,1.92,8.61,8.61,0,0,1-7,3.81,4.45,4.45,0,0,1-2.45-.5A6.31,6.31,0,0,1,92.08,60V18.89q0-.08,0-.18Q91.4,7.26,79.86,6.49h.09L32.67,1.92l-.32-.06L13.28,0h-.35Q.47.24,0,11a2.74,2.74,0,0,0,0,.3q.15,3.92.35,7.76.27,5.37.71,10.59.69,8.11,1.68,15.88a1.26,1.26,0,0,1,0,.18l0,.18,0,0L4,54.6v0Q4.92,60.15,6,65.49a.25.25,0,0,1,0,.09q3.87,16.6,18.42,18.5l.3,0,5,.15h.21L42,84l27.45-.09a2.74,2.74,0,0,0,.47,0l19.24-.09h.21q1.8-.13,3.45-.35h0q9.63-1.42,14.31-6.55h0q5.31-5.41,4.75-15.08a15.71,15.71,0,0,0,7.29.21q6.93-1.27,14.11-9a63.87,63.87,0,0,0,5.84-7.29A2.92,2.92,0,0,0,138.8,42a2.72,2.72,0,0,0-1.83-.83m-37,3.19a33.49,33.49,0,0,1-.41-9.74,4.28,4.28,0,0,1,.06-.71,36.93,36.93,0,0,1,3.72,4.63,20.58,20.58,0,0,1,3.54,9.86,19.06,19.06,0,0,1-.41,4.93q-5.13-2.42-6.49-8.91v-.06m5.73,22.78a12.36,12.36,0,0,1-2.8,5.75h0Q99.24,76.55,92,77.62H92q-1.48.19-3.1.3L70,78q-2.11-1.22-4.25-18.71a.52.52,0,0,0,0-.18Q63.28,45.7,51.21,45.74l-3-.21h-.24l-12.54-.94h-.47l-14.11-1a3.21,3.21,0,0,0-.65,0L8.33,42.65Q7.52,36,6.94,29.19q-.42-5.13-.68-10.39v0q-.2-3.69-.35-7.47.58-5.22,7-5.4L31.58,7.73l.3,0,47.51,4.6.09,0q6.32.41,6.7,6.67V60.2q0,.17,0,.35.77,6.26,4.46,8.5a9.49,9.49,0,0,0,6,1.51h0a14.51,14.51,0,0,0,9-3.45m15.29-18.42.15-.06a29.06,29.06,0,0,1,9.86-1.8Q130,48,129,49q-5.64,6-10.95,7.2a10.82,10.82,0,0,1-5.7-.47,17.63,17.63,0,0,1,8.59-7.08M30.87,7.5l-.15-.06.12,0,0,0m2.6-5.31-.12,0h0l.12,0M9.89,53.74l-.74-5.13,8.38.62q1.33,18.2,6.79,28.83-9.84-2-12.6-13.81l0,.12q-1-5.23-1.86-10.65v0M38,50.7l7.29.53q1.62,17,5.75,26.83l-7.32,0Q38.65,68,38,50.7M23.49,49.64l8.59.65q.55,17.21,5.13,27.89l-5.9.15Q25,68.54,23.49,49.64m27.74,2q7.13.26,8.65,8.41,1.48,12,3.87,17.94l-6.2,0Q53,69,51.24,51.65M61.51,28.72a4,4,0,0,0-8.06,0,4,4,0,0,0,1.18,2.86,4,4,0,0,0,5.7,0A4,4,0,0,0,61.51,28.72Z"/></g><g id="Layer0_1_MEMBER_2_FILL" data-name="Layer0 1 MEMBER 2 FILL"><path class="cls-1" d="M183.36,48.12a24.83,24.83,0,0,1,1.5-9,262,262,0,0,1-37.49,3.33,93.5,93.5,0,0,1,2.48,10v.72a3.36,3.36,0,0,0-.65.07h-.85q-2.22.2-4.44.33a21.54,21.54,0,0,1,2.74,8.36q29-3.79,42.65-1.24c-.09-.35-.17-.76-.26-1.24a52.64,52.64,0,0,1,0-10.65,16.76,16.76,0,0,1,.13-2.09,5.22,5.22,0,0,1-.85.07q-2.35.72-4.9,1.31l-.07.07m-30.5-2.35,5.29-.33,1.24,6.79-1.37.13q-.91.13-1.89.2l-1.5.13-1.76-6.92M164.68,45l5.36-.33.33,6-3.27.52-1.18.13L164.68,45m10.58-.65,4.51-.26V49a8.64,8.64,0,0,0-1,.2l-1.89.39q-.78.13-1.57.33V44.39m4.31-5,2.48-5.22a26.3,26.3,0,0,1-7-1.7,8.87,8.87,0,0,1-3.14,4.77l7.64,2.16m-16.65-17.5L152.73,23a56.42,56.42,0,0,1,1.37,18.29q3-1.18,8.49,0a88.81,88.81,0,0,1,.33-19.4m.52,12.54q2.94,1.24,5,5.49a36.41,36.41,0,0,0,5.42-8.56,49.32,49.32,0,0,0,9.21-.46V23.43q-.72.39-1.44.72a11.24,11.24,0,0,1-6.07.85L177,21.14a25.94,25.94,0,0,1-10-.39q.26,8.88-3.59,13.72m-15.67,4.44,5.42-2.35a33.65,33.65,0,0,1-1.5-10.38h-6.92a40.16,40.16,0,0,1,3,12.74M187.8,10l-9.27-.78.78-3.79q-3.92.78-10.71-1.31l.46,4.38-8.69-.78V4.42q-7.9.46-12.8-1.5l.78,3.92-9-.78L141.5,18.4h9.14l.52,2.68a22.54,22.54,0,0,1,9.08,0l.07-2.74H170l.2,2.29h5.94l.46-2.35h9.86L187.8,10m23.71,43.5a25.67,25.67,0,0,1-3.14-7.84q-6.47,3.46-16.65,4.77a96.32,96.32,0,0,1,1,11q11.23-7.31,18.81-8m24-12.93q-.2-.85-.33-1.7A8.23,8.23,0,0,1,234,40.35c-.26.22-.5.43-.72.65a7.21,7.21,0,0,1-2.48,1.18,26.26,26.26,0,0,0,1.37,7.31,18.15,18.15,0,0,0,1.63,3.33,14.46,14.46,0,0,0,.85,1.37,11.6,11.6,0,0,0,4.51-2.81,2.16,2.16,0,0,1,.26-.33,9.29,9.29,0,0,0,.78-1.18,5.92,5.92,0,0,0,.65-2.16A8.94,8.94,0,0,1,238,45.64a11.15,11.15,0,0,1-2.48-5M220.72,37h.52a108.44,108.44,0,0,1,1.37,11.63q-.06,1.83-.07,4.7l-5.36-3.72a18.15,18.15,0,0,1-.65,6.07,15,15,0,0,1,2.87,3.07,25.18,25.18,0,0,1,2.09,3.59L231,60.72a189.22,189.22,0,0,1-3.27-21.16q-.13-1.24-.2-2.48a1.46,1.46,0,0,1-.07-.46h1.89q1.83.06,3.66.2h.2q-.06-.78-.2-1.63t-.13-1.76a60.61,60.61,0,0,1,.13-7.9V22.65L212.23,26.3a33,33,0,0,1,2,4.83,26.35,26.35,0,0,1,.91,6.86q3.4-.72,4.77-.85l.85-.13m-1.44-4.7q-.26-1.37-.59-2.74L229,28.26V30q0,1.5.13,3.2A9.05,9.05,0,0,0,228,33.1a53.18,53.18,0,0,0-6.34.26,17,17,0,0,0-2.09.26l-.26-1.31M211.12,47a11,11,0,0,1,1,2.16,20,20,0,0,1,.91,3.07,1.76,1.76,0,0,1,.46-.33,14.23,14.23,0,0,0,2.87-2.74v.26l.46-.91a22.42,22.42,0,0,0,2.81-5.29l-1.11-.65a9.67,9.67,0,0,1-2.35-2.94s0,.07,0,.07a11.6,11.6,0,0,1-.52,1,12.37,12.37,0,0,1-2.48,3.46,10.29,10.29,0,0,1-2.81,1.89,5.14,5.14,0,0,1,.72.91m-9.34-34.62a2.45,2.45,0,0,1,.07-.59A65.62,65.62,0,0,1,194.4,10a24.21,24.21,0,0,1-2.61,10.52,13.55,13.55,0,0,1-4.51,3.92,32.47,32.47,0,0,0,.85,8,4.3,4.3,0,0,1,.46-.39l2.81-2.42q.2,1,.33,2.35l.13,1q.39,3.85.59,8.88.06,2.22.13,6.27a58.77,58.77,0,0,1,8-3.07,27.43,27.43,0,0,1,7.25-1.31V42.3q-.13-3.4-.07-4.83t.07-2.94q0-1.37.13-2.87.06-1.83.26-3.85l.13-2.35H207q-.72,0-1.37.07h-.91l2.94-6.79V15.85l-7.25,1.31a28.87,28.87,0,0,0,1-3.13l.78-1.57-.39-.07M202.3,29q1.5-.33,2.94-.59c0,.22-.09.48-.13.78q-.13,1.44-.2,3-1.31.2-2.68.46,0-1.63.07-3.13V29m0-7.25-1.37,4-1.89.13q-1,.13-2,.2a12.73,12.73,0,0,1-1.37.2l-1.11.13q.65-.78,1.31-1.5,1.18-1.57,2.22-3.13h4.25m.2,16.92-.2-2.55h.07a4.44,4.44,0,0,1-.07-.72q1.31-.33,2.55-.52v.72a23.59,23.59,0,0,0,.13,2.48,17.68,17.68,0,0,0-2.42.59h-.07M198.84,30q-.06,1.24,0,2.68l.13.85h-.07q-1.63.33-3.4.78v.07h-.46a2,2,0,0,0,.46-.07q-.06-1.76-.07-3.46l2.94-.78a1.46,1.46,0,0,1,.46-.07m-3.2,7.51q1.76-.65,3.53-1.18v.52q.13,1.31.33,2.74-1.76.46-3.59,1.11-.13-1.63-.26-3.2m32.07-27q.13-1.57.26-3.07a112.17,112.17,0,0,1-11.76-2.55L217,9a.19.19,0,0,0,.13-.07q.39,2,.78,3.92H207.86l2.81,11.23q4.38-.85,8.88-1.5,3.72-.59,7.51-1,3.27-.46,6.6-.72l2.68-.26V13.31h-8.88q.06-1.44.26-2.81m26.91,27.56q-.13-2.09-.2-4.25-4.18,1-8.36,2.48a42.94,42.94,0,0,0,2.48-9q.13-.78.2-1.57t.2-1.5a34.3,34.3,0,0,1,3.59-1.11l.26-8.36a39.7,39.7,0,0,1-14.37,1,53.86,53.86,0,0,0,1.89,11.56q2.16-.92,4.44-1.7a20.31,20.31,0,0,1-4.64,9.27,8.11,8.11,0,0,1-3.07,2.68l2.87,8.62a39.81,39.81,0,0,0,2.68-3.4,7,7,0,0,1,.07,1q.26,2.55.33,4.77.06,2.94-.07,5.68c0,.48-.07,1-.07,1.44q3.07-1.37,6.6-2.55,3.07-1,6.47-2c0-.48-.09-.94-.13-1.37l-.39-3.2q-.52-4.18-.78-8.49m-8,9.4V41.32q1.76-.92,3.72-1.7v7.25a13.15,13.15,0,0,0-2.29.33l-1.44.26m17.83-6.73a61.28,61.28,0,0,0-7.25,1.89l2,10.91q6.14-4.9,15.67-5.29-.52-4.9-.78-8.49a65.86,65.86,0,0,0-9.67,1M283.49,9.52q-.85.06-1.89.07a91.56,91.56,0,0,1-11.69-.65q-6.07-.65-14.3-1.83-.91,7.77-1.18,15.48a12,12,0,0,1,1.18-.33q2.87-.78,5.81-1.44l.26-.07a63.34,63.34,0,0,1-.26,11.63,41.55,41.55,0,0,1-1.5,7,49.77,49.77,0,0,1,6.34-1.11,45.64,45.64,0,0,1,7.71-.39q2.09.06,4.18.26h.07l-.85,14a46.28,46.28,0,0,0-7.71-2.29,20.46,20.46,0,0,1-1.76,8.62q4.51-.85,14,3.2.06-3.53.33-6.92a101.82,101.82,0,0,1,4-22.73l-.85-.2a19.64,19.64,0,0,0-6.34-.52v-.85q1-6.79,2.35-12.93,1-4.11,2.09-8M267.09,19.64v-.07l8.1-1.24q-.52,3-.85,5.81-.39,3-.52,7.05h-.07q-3.27.06-6.66.39a10.1,10.1,0,0,1,.13-1.31A88.7,88.7,0,0,0,267.09,19.64Z"/></g></g></g></svg>