<?xml version="1.0" encoding="utf-8"?>
<!-- Generator: Adobe Illustrator 21.0.0, SVG Export Plug-In . SVG Version: 6.00 Build 0)  -->
<svg version="1.1" id="图层_1" xmlns="http://www.w3.org/2000/svg" xmlns:xlink="http://www.w3.org/1999/xlink" x="0px" y="0px"
	 viewBox="0 0 1280 720" style="enable-background:new 0 0 1280 720;" xml:space="preserve">
<style type="text/css">
	.st0{fill:#16A1FF;}
	.st1{fill:#FFFFFF;}
</style>
<g transform="matrix( 1, 0, 0, 1, 0,0) ">
	<g>
		<g id="Layer0_0_FILL">
			<path class="st0" d="M1280,0H0v720h1280V0z"/>
		</g>
	</g>
</g>
<g>
	<g transform="matrix( 0.8799591064453125, 0, 0, 0.5902252197265625, 33.25,39.15) ">
		<g>
			<g id="Layer0_1_MEMBER_0_FILL">
				<path class="st1" d="M951.8,716.9h-46.6c1.7,19.5,2.7,36.1,3.1,49.8c0.8,24.6,1.2,39.4,1,44.3c-2.6,0.4-5.5,0.4-8.6,0
					c-5.7-1.4-9.3-2.5-10.7-3.3c0.7,4.8,1.2,8.5,1.5,11.2c0.6,5.2,0.9,8.8,1,10.8c7.4,1.6,14.3,2.5,20.9,2.5c11.8,0,22.8-4,33-12.1
					c0-15.5,0.6-33.4,1.7-53.5C949.9,742.8,951.1,726.2,951.8,716.9 M789,771c-5-28.1-8.1-46-9.2-53.7h-40.7
					c-2.9,16.7-6.4,34.4-10.4,52.9c-6.8,27.9-11.8,47.9-14.8,60.1h19.6l3.8-14.3c1.5,3.3,2.6,5.8,3.1,7.6l3.6,9
					c3.5-3.3,6.5-5.8,9.2-7.6c4.3-2.5,7-3.9,7.9-4.3l2.3,9.6l37.2-0.2C795.5,805.3,791.7,785.6,789,771 M744.3,794.1
					c2.4-6.4,4.1-11.1,5.2-14.1c2.2,5.9,3.9,10.3,5,13.5c1.8,5.9,3.1,10.1,3.8,12.7c-3.5,1-6.7,1.6-9.6,2c-4.7,0.8-7.8,1.2-9.2,1.2
					C741.3,802.9,742.9,797.8,744.3,794.1 M805.8,717.1c1,15.3,1.6,34.1,1.9,56.6c0.7,27.6,1.2,46.4,1.5,56.4h21.7l1.7-39
					c10.2,7.9,17.8,13.9,23,18c11.7,9.9,20.5,17.4,26.3,22.5c1.3-23.7,2.4-44.5,3.3-62.5c1.8-24.8,3.1-42.1,4-51.9h-25.3
					c0.3,5,0.5,9,0.6,11.8c0.1,3.4,0.1,8,0,13.9l-24.7-25.7L805.8,717.1 M647,717.5c1,23.8,1.6,42.5,1.9,56
					c0.3,26.6,0.4,45.6,0.4,57l61.2-0.2c0.4-4.4,1-8.1,1.9-11.2c1.3-5.4,2.2-9.2,2.7-11.2c-3.2,1-5.7,1.5-7.5,1.6
					c-8.8,1-15.3,1.5-19.6,1.6l6.1-93.6L647,717.5 M1326.6,716.1c-2.9,16.7-6.5,34.4-10.7,52.9c-6.7,27.9-11.6,47.9-14.6,60.1h19.6
					l3.8-14.3c1.4,3.3,2.4,5.8,3.1,7.6l3.6,9c3.5-3.3,6.5-5.8,9.2-7.6c4.3-2.5,7-3.9,7.9-4.3l2.3,9.6l37.2-0.2
					c-5-24.6-8.8-44.3-11.5-59c-5-28.1-8.1-46-9.2-53.7H1326.6 M1337.1,778.8c2.2,5.9,3.9,10.3,5,13.5c1.8,5.9,3.1,10.1,3.8,12.7
					c-3.5,1-6.7,1.6-9.6,2c-4.7,0.8-7.9,1.2-9.4,1.2c2-6.5,3.6-11.6,4.8-15.3C1334,786.5,1335.8,781.8,1337.1,778.8 M1192.9,716.3
					c1.1,21.9,1.8,40.6,2.1,56c0.1,26.8,0.3,45.8,0.4,57h24.4l1.5-34.5l24.7,37.4l25.1-37.6l-0.2,34.7l24.4-0.2
					c0.8-21,1.7-39.8,2.7-56.6c2.1-27.2,3.5-46,4.2-56.4l-35.5,0.2c-2.9,7.2-5.4,12.8-7.5,16.7c-5.4,10.5-9.1,17.4-11.1,20.6
					c-4.2-7.8-7.5-14.4-9.8-20c-3.1-8-5.2-13.8-6.5-17.4H1192.9 M1159.1,781c0.7,6.9,1.2,12,1.5,15.1l0.8,14.7
					c-6,0.1-11.2-1.5-15.7-4.9c-5.3-4.1-7.8-10-7.5-17.8c0.1-8,3.5-14.7,10-20c5.9-4.6,12.3-6.9,19.2-6.9c5.4,0,9.7,0.5,12.7,1.6
					l-2.7-46.2c-7.4-1.2-14.3-1.8-20.7-1.8c-17.1,0-31.1,5-41.8,15.1c-11.4,10.8-17.4,25.6-18,44.5c-0.4,20,5.6,35,18,44.9
					c10.6,8.6,24.5,12.9,41.8,12.9c11.6,0,20.4-1,26.5-3.1c0.6-9.5,1.3-17.8,2.1-24.7c1.3-11.7,2-19.6,2.3-23.7L1159.1,781
					 M1000.5,776.7l4-60.1l-47,0.2l1.9,113l38-0.2C998.6,807.3,999.6,789.7,1000.5,776.7 M1010.1,716.7c0.8,15.3,1.5,34.1,1.9,56.6
					c0.6,27.6,1,46.4,1.3,56.4h21.7l1.7-39c10.2,7.9,17.8,13.9,23,18c11.8,9.9,20.6,17.4,26.3,22.3c1.3-23.7,2.4-44.5,3.6-62.5
					c1.7-24.8,2.9-42.1,3.8-51.9l-25.1,0.2c0.3,5,0.4,9,0.4,11.8c0.1,3.4,0.1,8,0,13.9l-24.4-25.7L1010.1,716.7L1010.1,716.7z"/>
			</g>
		</g>
	</g>
	<g transform="matrix( 0.5902252197265625, 0, 0, 0.5902252197265625, 822.2,267.6) ">
		<g>
			<g id="Layer0_1_MEMBER_1_FILL">
				<path class="st1" d="M-380.4,149.7c-7.5-0.7-14.8-1.2-21.9-1.4c-39.8-1.2-74.2,3.5-103,14.3c-2.2,0.3-4.4,1.1-6.5,2.5
					c-15.1,6.1-28.8,13.9-41,23.3c-3.2-26.8-13.6-53.2-31.1-79.3c-15.3-22.7-36.3-45.1-62.9-67c-4-3.3-8.6-4.9-13.6-4.9
					s-9.5,1.6-13.4,4.9c-3.9,3.1-6.3,7.1-7.1,12.1c-3.1,16.6-5.2,32.3-6.3,47.2c-2.5,29.5-1.4,55.3,3.3,77.2c0,0.7,0.1,1.4,0.2,2
					c10,46.1,34.3,76.9,72.9,92.3c-2.3,4.9-4.9,9.3-7.7,13.3c-11.8,16.5-28.3,25.3-49.5,26.3c-6.9,0.3-12.6-0.8-17.3-3.5
					c-6.9-5.6-11.2-15.3-13-29V-4.3c0-0.4,0-0.8,0-1.2c-3.2-52.8-32.1-81-86.5-84.6h0.6l-334.7-31.7c-0.7-0.1-1.5-0.3-2.3-0.4
					l-135-12.9c-0.8,0-1.7,0-2.5,0c-58.8,1.1-89.3,26.5-91.5,76.4c0,0.7,0,1.4,0,2c0.7,18.1,1.5,36,2.5,53.7c1.3,24.8,3,49.2,5,73.3
					c3.3,37.4,7.2,74,11.9,109.9c0,0.4,0,0.8,0,1.2l0.2,1.2l0.2,0.2l8.8,59.8v0.2c4.1,25.5,8.6,50.6,13.6,75.2c0,0.2,0,0.4,0,0.6
					c18.3,76.6,61.7,119.3,130.4,128.1c0.7,0.1,1.4,0.2,2.1,0.2l35.3,1c0.5,0,0.9,0,1.3,0c0.1,0,0.2,0,0.2,0l85.7-1.8l194.3-0.6
					c1.2,0.1,2.3,0.1,3.3,0l136.2-0.6c0.5,0,1,0,1.5,0c8.5-0.6,16.7-1.4,24.4-2.5h0.2c45.5-6.5,79.2-21.7,101.3-45.3h0.2
					c25.1-24.9,36.3-59.7,33.6-104.4c17,4.4,34.2,4.9,51.6,1.4c32.7-5.9,66-26.6,99.9-62.1c13.8-14.3,27.6-31.1,41.4-50.5
					c2.9-4.2,4.2-8.8,3.8-13.7c-0.6-4.9-2.6-9.1-6.3-12.7C-371.1,151.9-375.4,150-380.4,149.7 M-642.7,171.8
					c-4.2-19.1-5.2-41.5-2.9-67.4c0-1.6,0.1-3.3,0.4-4.9c10.2,10.6,18.9,21.3,26.3,32.1c15,22.5,23.4,45.2,25.1,68.2
					c0.6,11.3-0.4,22.7-2.9,34.1c-24.2-11.2-39.6-31.7-46-61.7C-642.7,172.1-642.7,171.9-642.7,171.8 M-602.1,329.5
					c-3.4,15.7-10,29-19.8,39.8l0,0c-17,17-42.7,28-77.1,32.9h0.4c-7,0.9-14.3,1.6-21.9,2l-133.9,0.6c-10-5.6-20-48.8-30.1-129.5
					c0-0.4-0.1-0.8-0.2-1.2c-11.5-61.9-45.8-92.8-102.8-92.5l-21.5-1.4c-0.5,0-1.1,0-1.7,0l-88.8-6.5c-0.5,0-1,0-1.5,0h-1.9
					l-99.9-7.1c-1.5-0.2-3-0.3-4.6-0.2l-83.8-6.1c-3.8-30.4-7.1-61.5-9.8-93.1c-2-23.7-3.6-47.6-4.8-71.9v-0.2
					c-0.9-17-1.8-34.3-2.5-51.7c2.7-24.1,19.2-36.5,49.3-37.4l132.5,12.7c0.7,0.1,1.4,0.2,2.1,0.2l336.4,31.9
					c0.3,0.1,0.5,0.2,0.6,0.2c29.8,1.9,45.6,17.3,47.4,46.2v284.7c0,0.8,0,1.6,0,2.5c3.7,28.9,14.2,48.5,31.5,58.8
					c11.3,7.7,25.5,11.2,42.6,10.4h0.2C-640.4,352-619.2,344-602.1,329.5 M-493.9,202c0.3-0.1,0.6-0.3,1-0.4
					c19.9-7.6,43.2-11.8,69.8-12.5c-4.6,5.4-9.2,10.6-13.8,15.3c-26.6,27.9-52.4,44.5-77.5,49.8c-13.7,2.5-27.1,1.4-40.3-3.3
					C-540.2,228.6-519.9,212.2-493.9,202 M-1131.6-83.2l-1-0.4l0.8,0.2L-1131.6-83.2 M-1113.2-119.9l-0.8-0.2l0,0L-1113.2-119.9
					 M-1280.1,236.9l-5.2-35.5l59.3,4.3c6.3,84,22.3,150.5,48.1,199.6c-46.4-9.1-76.2-41-89.2-95.6l0.2,0.8
					c-4.8-24.1-9.2-48.7-13.2-73.7V236.9 M-1081.2,215.9l51.6,3.7c7.7,78.5,21.2,140.4,40.7,185.7l-51.8,0.2
					C-1064.6,359.1-1078.1,295.9-1081.2,215.9 M-1183.8,208.5l60.8,4.5c2.6,79.4,14.7,143.7,36.4,193l-41.8,1
					C-1158.2,361.9-1176.7,295.8-1183.8,208.5 M-987.4,222.4c33.6,1.2,54,20.6,61.2,58.2c7,55.4,16.1,96.8,27.4,124.2l-43.9,0.2
					C-964.2,363.3-979.1,302.4-987.4,222.4 M-914.7,63.7c0-7.6-2.8-14.2-8.4-19.6c-5.6-5.4-12.3-8.2-20.3-8.2
					c-7.8,0-14.5,2.7-20.1,8.2s-8.4,12-8.4,19.6c0,7.6,2.8,14.2,8.4,19.8c5.6,5.4,12.3,8.2,20.1,8.2c7.9,0,14.7-2.7,20.3-8.2
					C-917.5,77.9-914.7,71.3-914.7,63.7z"/>
			</g>
		</g>
	</g>
	<g transform="matrix( 1.306243896484375, 0, 0, 1.306243896484375, -356.8,36.4) ">
		<g>
			<g id="Layer0_1_MEMBER_2_FILL">
				<path class="st1" d="M879.1,266.5c-0.1-9.9,1.5-19.3,4.8-28.2c-33.4,5.7-73.4,9.2-119.9,10.4c3.9,12.9,6.5,23.4,7.9,31.3v2.2
					c-0.7,0-1.4,0.1-2.1,0.2c-1,0-1.9,0-2.7,0c-4.7,0.4-9.5,0.7-14.2,1c4.6,7.6,7.5,16.3,8.8,26.1c61.8-7.9,107.3-9.2,136.4-3.9
					c-0.3-1.1-0.6-2.4-0.8-3.9c-1.1-7.2-1.1-18.3,0-33.3c0-2.2,0.1-4.4,0.4-6.5c-0.8,0.1-1.7,0.2-2.7,0.2c-5,1.5-10.2,2.9-15.7,4.1
					L879.1,266.5 M781.5,259.1l16.9-1l4,21.2c-1.4,0.1-2.9,0.3-4.4,0.4c-2,0.3-4,0.5-6.1,0.6c-1.7,0.1-3.3,0.3-4.8,0.4L781.5,259.1
					 M819.4,256.9l17.1-1l1,18.8c-3.5,0.5-7,1.1-10.4,1.6c-1.3,0.1-2.5,0.3-3.8,0.4L819.4,256.9 M853.2,254.8l14.4-0.8v15.1
					c-1.1,0.1-2.2,0.3-3.3,0.6c-2.1,0.4-4.1,0.8-6.1,1.2c-1.7,0.3-3.3,0.6-5,1V254.8 M867,239.3l7.9-16.3
					c-6.1-0.4-13.6-2.2-22.4-5.3c-1.5,5.9-4.9,10.8-10,14.9L867,239.3 M813.7,184.6l-32.6,3.5c4.6,18.1,6.1,37.2,4.4,57.2
					c6.4-2.5,15.5-2.5,27.2,0C810.7,227.2,811.1,207,813.7,184.6 M815.4,223.8c6.3,2.6,11.6,8.3,16.1,17.2
					c7.5-8.9,13.3-17.8,17.3-26.8c10.2,0.4,20-0.1,29.5-1.4v-23.5c-1.5,0.8-3.1,1.6-4.6,2.2c-6.8,2.7-13.3,3.6-19.4,2.7l4.6-12.1
					c-10.3,1.6-21,1.2-32-1.2C827.4,199.4,823.6,213.7,815.4,223.8 M765.2,237.7l17.3-7.4c-3.5-11.6-5.1-22.4-4.8-32.5h-22.1
					C761.2,211.2,764.4,224.5,765.2,237.7 M893.3,147.4l-29.7-2.5l2.5-11.8c-8.4,1.6-19.8,0.3-34.3-4.1l1.5,13.7l-27.8-2.5v-10.4
					c-16.9,1-30.5-0.6-41-4.7l2.5,12.3l-28.8-2.5l6.9,38.6h29.3l1.7,8.4c7.8-1.9,17.5-1.9,29,0l0.2-8.6h31.1l0.6,7.1h19l1.5-7.4
					h31.5L893.3,147.4 M969.2,283.4c-4-6-7.4-14.2-10-24.5c-13.8,7.2-31.5,12.2-53.3,14.9c1.7,10.9,2.7,22.4,3.1,34.5
					C932.9,293.1,953,284.8,969.2,283.4 M1046,243c-0.4-1.8-0.8-3.5-1-5.3c-1.3,1.8-2.6,3.3-4,4.5c-0.8,0.7-1.6,1.4-2.3,2
					c-2.5,1.8-5.2,3-7.9,3.7c0.4,8.2,1.9,15.8,4.4,22.9c1.4,3.7,3.1,7.1,5.2,10.4c0.8,1.5,1.7,2.9,2.7,4.3
					c6.3-2.3,11.1-5.2,14.4-8.8c0.3-0.4,0.6-0.7,0.8-1c1-1.2,1.8-2.5,2.5-3.7c1.1-2,1.8-4.3,2.1-6.7c-3.5-1.6-6.5-3.8-9-6.5
					C1050.2,254.6,1047.6,249.4,1046,243 M998.6,231.7c0.6,0,1.1,0,1.7,0c3.1,20.4,4.5,32.5,4.4,36.4c-0.1,3.8-0.2,8.7-0.2,14.7
					l-17.1-11.6c0.3,7.5-0.4,13.8-2.1,19c3.3,2.6,6.4,5.8,9.2,9.6c2.4,3.3,4.6,7,6.7,11.2l30.5-5.1c-4.9-22.6-8.4-44.7-10.4-66.2
					c-0.3-2.6-0.5-5.2-0.6-7.8c-0.1-0.4-0.2-0.9-0.2-1.4c2.1,0,4.1,0,6.1,0c3.9,0.1,7.8,0.3,11.7,0.6c0.3,0,0.5,0,0.6,0
					c-0.1-1.6-0.3-3.3-0.6-5.1c-0.1-1.8-0.3-3.6-0.4-5.5c-0.4-7.8-0.3-16,0.4-24.7v-9l-66.6,11.4c2.5,4.9,4.6,9.9,6.3,15.1
					c1.7,5.2,2.6,12.3,2.9,21.4c7.2-1.5,12.3-2.4,15.3-2.7C996.9,232,997.8,231.9,998.6,231.7 M994,217c-0.6-2.9-1.2-5.7-1.9-8.6
					l32.8-4.1c0,1.8,0,3.5,0,5.3c0,3.1,0.1,6.5,0.4,10c-1.1-0.1-2.3-0.2-3.6-0.2c-6.4-0.1-13.2,0.1-20.3,0.8
					c-2.2,0.1-4.5,0.4-6.7,0.8C994.6,219.8,994.3,218.4,994,217 M967.9,263c1.3,1.9,2.4,4.2,3.3,6.7c1.1,2.7,2.1,5.9,2.9,9.6
					c0.4-0.4,0.9-0.7,1.5-1c3.3-2.3,6.4-5.2,9.2-8.6c0,0.1,0,0.4,0,0.8l1.5-2.9c3.5-4.6,6.5-10.1,9-16.5l-3.6-2
					c-2.8-2.2-5.3-5.2-7.5-9.2c-0.1,0.1-0.1,0.2,0,0.2c-0.6,1.2-1.1,2.3-1.7,3.3c-2.2,4.4-4.9,8-7.9,10.8c-2.6,2.5-5.6,4.4-9,5.9
					C966.4,260.9,967.2,261.9,967.9,263 M938,154.7c0-0.7,0.1-1.3,0.2-1.8c-7.1-1.2-15-3.1-23.8-5.7c-0.4,12.3-3.2,23.2-8.4,32.9
					c-3.8,5-8.6,9.1-14.4,12.3c-0.1,8.7,0.8,17.1,2.7,25.1c0.4-0.4,0.9-0.8,1.5-1.2c3.1-2.6,6.1-5.1,9-7.6c0.4,2.2,0.8,4.6,1,7.4
					c0.1,1.1,0.3,2.2,0.4,3.3c0.8,8,1.5,17.3,1.9,27.8c0.1,4.6,0.3,11.2,0.4,19.6c9.1-4.1,17.6-7.3,25.7-9.6
					c7.9-2.5,15.7-3.8,23.2-4.1c0-2.5,0-4,0-4.7c-0.3-7.1-0.3-12.1-0.2-15.1c0-3,0.1-6.1,0.2-9.2c0-2.9,0.1-5.9,0.4-9
					c0.1-3.8,0.4-7.8,0.8-12.1c0.1-2.5,0.3-4.9,0.4-7.4h-4.4c-1.5,0-3,0.1-4.4,0.2c-1,0-2,0-2.9,0l9.4-21.2v-9l-23.2,4.1
					c1.3-3.3,2.3-6.5,3.1-9.8l2.5-4.9L938,154.7 M939.7,206.8c3.2-0.7,6.3-1.3,9.4-1.8c-0.1,0.7-0.3,1.5-0.4,2.5
					c-0.3,3-0.5,6.1-0.6,9.4c-2.8,0.4-5.6,0.9-8.6,1.4c0-3.4,0.1-6.7,0.2-9.8C939.7,207.9,939.7,207.4,939.7,206.8 M939.7,184.1
					l-4.4,12.5c-2,0.1-4,0.3-6.1,0.4c-2.2,0.3-4.4,0.5-6.5,0.6c-1.4,0.3-2.9,0.5-4.4,0.6c-1.1,0.1-2.3,0.3-3.6,0.4
					c1.4-1.6,2.8-3.2,4.2-4.7c2.5-3.3,4.9-6.5,7.1-9.8L939.7,184.1 M940.3,237l-0.6-8h0.2c-0.1-0.8-0.2-1.6-0.2-2.2
					c2.8-0.7,5.5-1.2,8.1-1.6c0,0.8,0,1.6,0,2.2c0,2.6,0.1,5.2,0.4,7.8c-2.5,0.4-5.1,1-7.7,1.8H940.3 M928.6,209.7
					c-0.1,2.6-0.1,5.4,0,8.4l0.4,2.7h-0.2c-3.5,0.7-7.1,1.5-10.9,2.5v0.2h-1.5c0.5,0,0.9-0.1,1.5-0.2c-0.1-3.7-0.2-7.3-0.2-10.8
					c3.1-0.8,6.2-1.6,9.4-2.5C927.6,209.7,928.1,209.7,928.6,209.7 M918.4,233.2c3.8-1.4,7.5-2.6,11.3-3.7c0,0.5,0,1.1,0,1.6
					c0.3,2.7,0.6,5.6,1,8.6c-3.8,1-7.6,2.1-11.5,3.5C918.9,239.8,918.7,236.4,918.4,233.2 M1021,148.8c0.3-3.3,0.6-6.5,0.8-9.6
					c-12.3-1.9-24.8-4.6-37.6-8l2.5,12.9c0.1,0,0.3-0.1,0.4-0.2c0.8,4.2,1.7,8.3,2.5,12.3h-32.2l9,35.1c9.3-1.8,18.8-3.3,28.4-4.7
					c7.9-1.2,16-2.3,24-3.3c7-1,14-1.7,21.1-2.2c2.8-0.3,5.6-0.5,8.6-0.8v-22.7h-28.4C1020.3,154.6,1020.6,151.7,1021,148.8
					 M1107.1,235c-0.3-4.4-0.5-8.8-0.6-13.3c-8.9,2.2-17.8,4.8-26.7,7.8c3.6-8.9,6.3-18.2,7.9-28.2c0.3-1.6,0.5-3.3,0.6-4.9
					c0.3-1.6,0.5-3.2,0.6-4.7c3.8-1.4,7.6-2.5,11.5-3.5l0.8-26.1c-13.9,3.7-29.3,4.7-46,3.1c0.8,13.2,2.9,25.3,6.1,36.2
					c4.6-1.9,9.3-3.7,14.2-5.3c-2.8,11.7-7.7,21.4-14.8,29c-2.8,3.8-6.1,6.6-9.8,8.4l9.2,27c3.1-3.4,5.9-6.9,8.6-10.6
					c0.1,1,0.2,2,0.2,3.1c0.6,5.3,0.9,10.3,1,14.9c0.1,6.1,0.1,12.1-0.2,17.8c-0.1,1.5-0.2,3-0.2,4.5c6.5-2.9,13.6-5.5,21.1-8
					c6.5-2.2,13.4-4.2,20.7-6.1c-0.1-1.5-0.3-2.9-0.4-4.3l-1.3-10C1108.5,252.8,1107.6,244,1107.1,235 M1081.4,264.4v-19.2
					c3.8-1.9,7.7-3.7,11.9-5.3v22.7c-2.5,0.1-4.9,0.5-7.3,1L1081.4,264.4 M1138.4,243.4c-7.8,1.5-15.5,3.5-23.2,5.9l6.5,34.1
					c13.1-10.2,29.8-15.7,50.1-16.5c-1.1-10.2-2-19.1-2.5-26.6C1156.4,240.9,1146.1,241.9,1138.4,243.4 M1199.4,145.7
					c-1.8,0.1-3.8,0.2-6.1,0.2c-9.1,0.3-21.5-0.4-37.4-2c-13-1.4-28.2-3.3-45.8-5.7c-2,16.2-3.2,32.3-3.8,48.4
					c1.3-0.4,2.5-0.7,3.8-1c6.1-1.6,12.3-3.1,18.6-4.5l0.8-0.2c0.8,13.2,0.6,25.3-0.8,36.4c-1,7.5-2.6,14.8-4.8,21.9
					c7-1.6,13.7-2.8,20.3-3.5c8.2-1.1,16.4-1.5,24.7-1.2c4.5,0.1,8.9,0.4,13.4,0.8h0.2l-2.7,43.7c-7.2-2.9-15.5-5.2-24.7-7.1
					c0.4,7.9-1.5,16.9-5.6,27c9.6-1.8,24.5,1.6,44.7,10c0.1-7.4,0.5-14.6,1-21.7c2-26.3,6.3-50,13-71.1l-2.7-0.6
					c-6.8-1.6-13.6-2.2-20.3-1.6c0-1.5,0-2.4,0-2.7c2.1-14.2,4.6-27.6,7.5-40.4C1194.8,162.1,1197,153.8,1199.4,145.7 M1147,177.4
					v-0.2l25.9-3.9c-1.1,6.3-2,12.3-2.7,18.2c-0.8,6.3-1.4,13.6-1.7,22.1h-0.2c-7,0.1-14.1,0.5-21.3,1.2c0.1-2.2,0.3-3.5,0.4-4.1
					C1147.9,200.9,1147.8,189.8,1147,177.4z"/>
			</g>
		</g>
	</g>
</g>
</svg>
